<svg width="2198" height="2186" xmlns="http://www.w3.org/2000/svg" xmlns:xlink="http://www.w3.org/1999/xlink" overflow="hidden"><defs><filter id="fx0" x="-10%" y="-10%" width="120%" height="120%" filterUnits="userSpaceOnUse" primitiveUnits="userSpaceOnUse"><feComponentTransfer color-interpolation-filters="sRGB"><feFuncR type="discrete" tableValues="0 0"/><feFuncG type="discrete" tableValues="0 0"/><feFuncB type="discrete" tableValues="0 0"/><feFuncA type="linear" slope="0.431373" intercept="0"/></feComponentTransfer><feGaussianBlur stdDeviation="3.02766 3.02766"/></filter><filter id="fx1" x="-10%" y="-10%" width="120%" height="120%" filterUnits="userSpaceOnUse" primitiveUnits="userSpaceOnUse"><feComponentTransfer color-interpolation-filters="sRGB"><feFuncR type="discrete" tableValues="0 0"/><feFuncG type="discrete" tableValues="0 0"/><feFuncB type="discrete" tableValues="0 0"/><feFuncA type="linear" slope="0.431373" intercept="0"/></feComponentTransfer><feGaussianBlur stdDeviation="3.02766 3.02766"/></filter><filter id="fx2" x="-10%" y="-10%" width="120%" height="120%" filterUnits="userSpaceOnUse" primitiveUnits="userSpaceOnUse"><feComponentTransfer color-interpolation-filters="sRGB"><feFuncR type="discrete" tableValues="0 0"/><feFuncG type="discrete" tableValues="0 0"/><feFuncB type="discrete" tableValues="0 0"/><feFuncA type="linear" slope="0.431373" intercept="0"/></feComponentTransfer><feGaussianBlur stdDeviation="3.02766 3.02766"/></filter><filter id="fx3" x="-10%" y="-10%" width="120%" height="120%" filterUnits="userSpaceOnUse" primitiveUnits="userSpaceOnUse"><feComponentTransfer color-interpolation-filters="sRGB"><feFuncR type="discrete" tableValues="0 0"/><feFuncG type="discrete" tableValues="0 0"/><feFuncB type="discrete" tableValues="0 0"/><feFuncA type="linear" slope="0.431373" intercept="0"/></feComponentTransfer><feGaussianBlur stdDeviation="3.02766 3.02766"/></filter><filter id="fx4" x="-10%" y="-10%" width="120%" height="120%" filterUnits="userSpaceOnUse" primitiveUnits="userSpaceOnUse"><feComponentTransfer color-interpolation-filters="sRGB"><feFuncR type="discrete" tableValues="0 0"/><feFuncG type="discrete" tableValues="0 0"/><feFuncB type="discrete" tableValues="0 0"/><feFuncA type="linear" slope="0.431373" intercept="0"/></feComponentTransfer><feGaussianBlur stdDeviation="3.02766 3.02766"/></filter><filter id="fx5" x="-10%" y="-10%" width="120%" height="120%" filterUnits="userSpaceOnUse" primitiveUnits="userSpaceOnUse"><feComponentTransfer color-interpolation-filters="sRGB"><feFuncR type="discrete" tableValues="0 0"/><feFuncG type="discrete" tableValues="0 0"/><feFuncB type="discrete" tableValues="0 0"/><feFuncA type="linear" slope="0.431373" intercept="0"/></feComponentTransfer><feGaussianBlur stdDeviation="3.02766 3.02766"/></filter><filter id="fx6" x="-10%" y="-10%" width="120%" height="120%" filterUnits="userSpaceOnUse" primitiveUnits="userSpaceOnUse"><feComponentTransfer color-interpolation-filters="sRGB"><feFuncR type="discrete" tableValues="0 0"/><feFuncG type="discrete" tableValues="0 0"/><feFuncB type="discrete" tableValues="0 0"/><feFuncA type="linear" slope="0.431373" intercept="0"/></feComponentTransfer><feGaussianBlur stdDeviation="3.02766 3.02766"/></filter><filter id="fx7" x="-10%" y="-10%" width="120%" height="120%" filterUnits="userSpaceOnUse" primitiveUnits="userSpaceOnUse"><feComponentTransfer color-interpolation-filters="sRGB"><feFuncR type="discrete" tableValues="0 0"/><feFuncG type="discrete" tableValues="0 0"/><feFuncB type="discrete" tableValues="0 0"/><feFuncA type="linear" slope="0.431373" intercept="0"/></feComponentTransfer><feGaussianBlur stdDeviation="3.02766 3.02766"/></filter><filter id="fx8" x="-10%" y="-10%" width="120%" height="120%" filterUnits="userSpaceOnUse" primitiveUnits="userSpaceOnUse"><feComponentTransfer color-interpolation-filters="sRGB"><feFuncR type="discrete" tableValues="0 0"/><feFuncG type="discrete" tableValues="0 0"/><feFuncB type="discrete" tableValues="0 0"/><feFuncA type="linear" slope="0.431373" intercept="0"/></feComponentTransfer><feGaussianBlur stdDeviation="3.02766 3.02766"/></filter><filter id="fx9" x="-10%" y="-10%" width="120%" height="120%" filterUnits="userSpaceOnUse" primitiveUnits="userSpaceOnUse"><feComponentTransfer color-interpolation-filters="sRGB"><feFuncR type="discrete" tableValues="0 0"/><feFuncG type="discrete" tableValues="0 0"/><feFuncB type="discrete" tableValues="0 0"/><feFuncA type="linear" slope="0.431373" intercept="0"/></feComponentTransfer><feGaussianBlur stdDeviation="3.02766 3.02766"/></filter><filter id="fx10" x="-10%" y="-10%" width="120%" height="120%" filterUnits="userSpaceOnUse" primitiveUnits="userSpaceOnUse"><feComponentTransfer color-interpolation-filters="sRGB"><feFuncR type="discrete" tableValues="0 0"/><feFuncG type="discrete" tableValues="0 0"/><feFuncB type="discrete" tableValues="0 0"/><feFuncA type="linear" slope="0.431373" intercept="0"/></feComponentTransfer><feGaussianBlur stdDeviation="3.02766 3.02766"/></filter><filter id="fx11" x="-10%" y="-10%" width="120%" height="120%" filterUnits="userSpaceOnUse" primitiveUnits="userSpaceOnUse"><feComponentTransfer color-interpolation-filters="sRGB"><feFuncR type="discrete" tableValues="0 0"/><feFuncG type="discrete" tableValues="0 0"/><feFuncB type="discrete" tableValues="0 0"/><feFuncA type="linear" slope="0.431373" intercept="0"/></feComponentTransfer><feGaussianBlur stdDeviation="3.02766 3.02766"/></filter><filter id="fx12" x="-10%" y="-10%" width="120%" height="120%" filterUnits="userSpaceOnUse" primitiveUnits="userSpaceOnUse"><feComponentTransfer color-interpolation-filters="sRGB"><feFuncR type="discrete" tableValues="0 0"/><feFuncG type="discrete" tableValues="0 0"/><feFuncB type="discrete" tableValues="0 0"/><feFuncA type="linear" slope="0.431373" intercept="0"/></feComponentTransfer><feGaussianBlur stdDeviation="1.35402 1.35402"/></filter><filter id="fx13" x="-10%" y="-10%" width="120%" height="120%" filterUnits="userSpaceOnUse" primitiveUnits="userSpaceOnUse"><feComponentTransfer color-interpolation-filters="sRGB"><feFuncR type="discrete" tableValues="0 0"/><feFuncG type="discrete" tableValues="0 0"/><feFuncB type="discrete" tableValues="0 0"/><feFuncA type="linear" slope="0.431373" intercept="0"/></feComponentTransfer><feGaussianBlur stdDeviation="1.35402 1.35402"/></filter><filter id="fx14" x="-10%" y="-10%" width="120%" height="120%" filterUnits="userSpaceOnUse" primitiveUnits="userSpaceOnUse"><feComponentTransfer color-interpolation-filters="sRGB"><feFuncR type="discrete" tableValues="0 0"/><feFuncG type="discrete" tableValues="0 0"/><feFuncB type="discrete" tableValues="0 0"/><feFuncA type="linear" slope="0.431373" intercept="0"/></feComponentTransfer><feGaussianBlur stdDeviation="1.35402 1.35402"/></filter><filter id="fx15" x="-10%" y="-10%" width="120%" height="120%" filterUnits="userSpaceOnUse" primitiveUnits="userSpaceOnUse"><feComponentTransfer color-interpolation-filters="sRGB"><feFuncR type="discrete" tableValues="0 0"/><feFuncG type="discrete" tableValues="0 0"/><feFuncB type="discrete" tableValues="0 0"/><feFuncA type="linear" slope="0.431373" intercept="0"/></feComponentTransfer><feGaussianBlur stdDeviation="1.35402 1.35402"/></filter><filter id="fx16" x="-10%" y="-10%" width="120%" height="120%" filterUnits="userSpaceOnUse" primitiveUnits="userSpaceOnUse"><feComponentTransfer color-interpolation-filters="sRGB"><feFuncR type="discrete" tableValues="0 0"/><feFuncG type="discrete" tableValues="0 0"/><feFuncB type="discrete" tableValues="0 0"/><feFuncA type="linear" slope="0.431373" intercept="0"/></feComponentTransfer><feGaussianBlur stdDeviation="1.35402 1.35402"/></filter><filter id="fx17" x="-10%" y="-10%" width="120%" height="120%" filterUnits="userSpaceOnUse" primitiveUnits="userSpaceOnUse"><feComponentTransfer color-interpolation-filters="sRGB"><feFuncR type="discrete" tableValues="0 0"/><feFuncG type="discrete" tableValues="0 0"/><feFuncB type="discrete" tableValues="0 0"/><feFuncA type="linear" slope="0.431373" intercept="0"/></feComponentTransfer><feGaussianBlur stdDeviation="1.35402 1.35402"/></filter><filter id="fx18" x="-10%" y="-10%" width="120%" height="120%" filterUnits="userSpaceOnUse" primitiveUnits="userSpaceOnUse"><feComponentTransfer color-interpolation-filters="sRGB"><feFuncR type="discrete" tableValues="0 0"/><feFuncG type="discrete" tableValues="0 0"/><feFuncB type="discrete" tableValues="0 0"/><feFuncA type="linear" slope="0.431373" intercept="0"/></feComponentTransfer><feGaussianBlur stdDeviation="1.35402 1.35402"/></filter><filter id="fx19" x="-10%" y="-10%" width="120%" height="120%" filterUnits="userSpaceOnUse" primitiveUnits="userSpaceOnUse"><feComponentTransfer color-interpolation-filters="sRGB"><feFuncR type="discrete" tableValues="0 0"/><feFuncG type="discrete" tableValues="0 0"/><feFuncB type="discrete" tableValues="0 0"/><feFuncA type="linear" slope="0.431373" intercept="0"/></feComponentTransfer><feGaussianBlur stdDeviation="1.35402 1.35402"/></filter><filter id="fx20" x="-10%" y="-10%" width="120%" height="120%" filterUnits="userSpaceOnUse" primitiveUnits="userSpaceOnUse"><feComponentTransfer color-interpolation-filters="sRGB"><feFuncR type="discrete" tableValues="0 0"/><feFuncG type="discrete" tableValues="0 0"/><feFuncB type="discrete" tableValues="0 0"/><feFuncA type="linear" slope="0.431373" intercept="0"/></feComponentTransfer><feGaussianBlur stdDeviation="1.35402 1.35402"/></filter><filter id="fx21" x="-10%" y="-10%" width="120%" height="120%" filterUnits="userSpaceOnUse" primitiveUnits="userSpaceOnUse"><feComponentTransfer color-interpolation-filters="sRGB"><feFuncR type="discrete" tableValues="0 0"/><feFuncG type="discrete" tableValues="0 0"/><feFuncB type="discrete" tableValues="0 0"/><feFuncA type="linear" slope="0.431373" intercept="0"/></feComponentTransfer><feGaussianBlur stdDeviation="1.35402 1.35402"/></filter><filter id="fx22" x="-10%" y="-10%" width="120%" height="120%" filterUnits="userSpaceOnUse" primitiveUnits="userSpaceOnUse"><feComponentTransfer color-interpolation-filters="sRGB"><feFuncR type="discrete" tableValues="0 0"/><feFuncG type="discrete" tableValues="0 0"/><feFuncB type="discrete" tableValues="0 0"/><feFuncA type="linear" slope="0.431373" intercept="0"/></feComponentTransfer><feGaussianBlur stdDeviation="1.35402 1.35402"/></filter><filter id="fx23" x="-10%" y="-10%" width="120%" height="120%" filterUnits="userSpaceOnUse" primitiveUnits="userSpaceOnUse"><feComponentTransfer color-interpolation-filters="sRGB"><feFuncR type="discrete" tableValues="0 0"/><feFuncG type="discrete" tableValues="0 0"/><feFuncB type="discrete" tableValues="0 0"/><feFuncA type="linear" slope="0.431373" intercept="0"/></feComponentTransfer><feGaussianBlur stdDeviation="1.35402 1.35402"/></filter><clipPath id="clip24"><rect x="1099" y="161" width="2198" height="2186"/></clipPath><clipPath id="clip25"><rect x="134" y="89" width="221" height="168"/></clipPath><clipPath id="clip26"><rect x="0" y="0" width="477" height="416"/></clipPath><clipPath id="clip27"><rect x="134" y="89" width="91" height="170"/></clipPath><clipPath id="clip28"><rect x="0" y="0" width="363" height="417"/></clipPath><clipPath id="clip29"><rect x="124" y="92" width="115" height="165"/></clipPath><clipPath id="clip30"><rect x="0" y="0" width="363" height="416"/></clipPath><clipPath id="clip31"><rect x="121" y="92" width="118" height="170"/></clipPath><clipPath id="clip32"><rect x="0" y="0" width="363" height="416"/></clipPath><clipPath id="clip33"><rect x="111" y="89" width="138" height="170"/></clipPath><clipPath id="clip34"><rect x="0" y="0" width="363" height="416"/></clipPath><clipPath id="clip35"><rect x="121" y="92" width="126" height="170"/></clipPath><clipPath id="clip36"><rect x="0" y="0" width="363" height="416"/></clipPath><clipPath id="clip37"><rect x="121" y="89" width="123" height="175"/></clipPath><clipPath id="clip38"><rect x="0" y="0" width="362" height="416"/></clipPath><clipPath id="clip39"><rect x="114" y="94" width="138" height="170"/></clipPath><clipPath id="clip40"><rect x="0" y="0" width="362" height="416"/></clipPath><clipPath id="clip41"><rect x="119" y="92" width="123" height="170"/></clipPath><clipPath id="clip42"><rect x="0" y="0" width="362" height="416"/></clipPath><clipPath id="clip43"><rect x="116" y="92" width="128" height="174"/></clipPath><clipPath id="clip44"><rect x="0" y="0" width="362" height="416"/></clipPath><clipPath id="clip45"><rect x="134" y="89" width="228" height="173"/></clipPath><clipPath id="clip46"><rect x="0" y="0" width="477" height="416"/></clipPath><clipPath id="clip47"><rect x="134" y="89" width="204" height="168"/></clipPath><clipPath id="clip48"><rect x="0" y="0" width="477" height="416"/></clipPath><clipPath id="clip49"><rect x="35" y="29" width="43" height="51"/></clipPath><clipPath id="clip50"><rect x="0" y="0" width="114" height="127"/></clipPath><clipPath id="clip51"><rect x="35" y="29" width="45" height="51"/></clipPath><clipPath id="clip52"><rect x="0" y="0" width="115" height="127"/></clipPath><clipPath id="clip53"><rect x="39" y="29" width="77" height="53"/></clipPath><clipPath id="clip54"><rect x="0" y="0" width="152" height="128"/></clipPath><clipPath id="clip55"><rect x="37" y="29" width="79" height="51"/></clipPath><clipPath id="clip56"><rect x="0" y="0" width="152" height="127"/></clipPath><clipPath id="clip57"><rect x="35" y="29" width="81" height="51"/></clipPath><clipPath id="clip58"><rect x="0" y="0" width="152" height="127"/></clipPath><clipPath id="clip59"><rect x="35" y="29" width="81" height="51"/></clipPath><clipPath id="clip60"><rect x="0" y="0" width="151" height="127"/></clipPath><clipPath id="clip61"><rect x="35" y="29" width="81" height="51"/></clipPath><clipPath id="clip62"><rect x="0" y="0" width="151" height="127"/></clipPath><clipPath id="clip63"><rect x="35" y="29" width="81" height="53"/></clipPath><clipPath id="clip64"><rect x="0" y="0" width="151" height="128"/></clipPath><clipPath id="clip65"><rect x="33" y="29" width="83" height="51"/></clipPath><clipPath id="clip66"><rect x="0" y="0" width="151" height="127"/></clipPath><clipPath id="clip67"><rect x="33" y="29" width="83" height="51"/></clipPath><clipPath id="clip68"><rect x="0" y="0" width="151" height="127"/></clipPath><clipPath id="clip69"><rect x="35" y="29" width="81" height="51"/></clipPath><clipPath id="clip70"><rect x="0" y="0" width="152" height="127"/></clipPath><clipPath id="clip71"><rect x="35" y="31" width="81" height="51"/></clipPath><clipPath id="clip72"><rect x="0" y="0" width="151" height="128"/></clipPath><linearGradient x1="1984.5" y1="826" x2="1984.5" y2="1231" gradientUnits="userSpaceOnUse" spreadMethod="reflect" id="fill73"><stop offset="0" stop-color="#FE4650"/><stop offset="0.00632911" stop-color="#FD4650"/><stop offset="0.0126582" stop-color="#FD4651"/><stop offset="0.0189873" stop-color="#FD4652"/><stop offset="0.0253165" stop-color="#FD4653"/><stop offset="0.0316456" stop-color="#FD4654"/><stop offset="0.0379747" stop-color="#FD4654"/><stop offset="0.0443038" stop-color="#FD4655"/><stop offset="0.0506329" stop-color="#FD4756"/><stop offset="0.056962" stop-color="#FD4757"/><stop offset="0.0632911" stop-color="#FD4758"/><stop offset="0.0696203" stop-color="#FC4758"/><stop offset="0.0759494" stop-color="#FC4759"/><stop offset="0.0822785" stop-color="#FC475A"/><stop offset="0.0886076" stop-color="#FC475B"/><stop offset="0.0949367" stop-color="#FC485C"/><stop offset="0.101266" stop-color="#FB485C"/><stop offset="0.107595" stop-color="#FB485D"/><stop offset="0.113924" stop-color="#FB485E"/><stop offset="0.120253" stop-color="#FB485F"/><stop offset="0.126582" stop-color="#FA485F"/><stop offset="0.132911" stop-color="#FA4860"/><stop offset="0.139241" stop-color="#FA4861"/><stop offset="0.14557" stop-color="#F94962"/><stop offset="0.151899" stop-color="#F94962"/><stop offset="0.158228" stop-color="#F84963"/><stop offset="0.164557" stop-color="#F84964"/><stop offset="0.170886" stop-color="#F84965"/><stop offset="0.177215" stop-color="#F74965"/><stop offset="0.183544" stop-color="#F74966"/><stop offset="0.189873" stop-color="#F64967"/><stop offset="0.196203" stop-color="#F64A67"/><stop offset="0.202532" stop-color="#F64A68"/><stop offset="0.208861" stop-color="#F54A69"/><stop offset="0.21519" stop-color="#F54A69"/><stop offset="0.221519" stop-color="#F44A6A"/><stop offset="0.227848" stop-color="#F44A6B"/><stop offset="0.234177" stop-color="#F34A6B"/><stop offset="0.240506" stop-color="#F34A6C"/><stop offset="0.246835" stop-color="#F24A6D"/><stop offset="0.253165" stop-color="#F14B6D"/><stop offset="0.259494" stop-color="#F14B6E"/><stop offset="0.265823" stop-color="#F04B6F"/><stop offset="0.272152" stop-color="#F04B6F"/><stop offset="0.278481" stop-color="#EF4B70"/><stop offset="0.28481" stop-color="#EE4B71"/><stop offset="0.291139" stop-color="#EE4B71"/><stop offset="0.297468" stop-color="#ED4B72"/><stop offset="0.303797" stop-color="#EC4B72"/><stop offset="0.310127" stop-color="#EC4C73"/><stop offset="0.316456" stop-color="#EB4C74"/><stop offset="0.322785" stop-color="#EA4C74"/><stop offset="0.329114" stop-color="#EA4C75"/><stop offset="0.335443" stop-color="#E94C76"/><stop offset="0.341772" stop-color="#E84C76"/><stop offset="0.348101" stop-color="#E84C77"/><stop offset="0.35443" stop-color="#E74C77"/><stop offset="0.360759" stop-color="#E64C78"/><stop offset="0.367089" stop-color="#E54C78"/><stop offset="0.373418" stop-color="#E44D79"/><stop offset="0.379747" stop-color="#E44D7A"/><stop offset="0.386076" stop-color="#E34D7A"/><stop offset="0.392405" stop-color="#E24D7B"/><stop offset="0.398734" stop-color="#E14D7B"/><stop offset="0.405063" stop-color="#E04D7C"/><stop offset="0.411392" stop-color="#DF4D7C"/><stop offset="0.417722" stop-color="#DF4D7D"/><stop offset="0.424051" stop-color="#DE4D7D"/><stop offset="0.43038" stop-color="#DD4D7E"/><stop offset="0.436709" stop-color="#DC4D7E"/><stop offset="0.443038" stop-color="#DB4D7F"/><stop offset="0.449367" stop-color="#DA4E7F"/><stop offset="0.455696" stop-color="#D94E80"/><stop offset="0.462025" stop-color="#D84E80"/><stop offset="0.468354" stop-color="#D74E81"/><stop offset="0.474684" stop-color="#D64E81"/><stop offset="0.481013" stop-color="#D54E82"/><stop offset="0.487342" stop-color="#D44E82"/><stop offset="0.493671" stop-color="#D34E83"/><stop offset="0.5" stop-color="#D24E83"/><stop offset="0.506329" stop-color="#D14E84"/><stop offset="0.512658" stop-color="#D04E84"/><stop offset="0.518987" stop-color="#CF4E84"/><stop offset="0.525316" stop-color="#CE4F85"/><stop offset="0.531646" stop-color="#CD4F85"/><stop offset="0.537975" stop-color="#CC4F86"/><stop offset="0.544304" stop-color="#CB4F86"/><stop offset="0.550633" stop-color="#CA4F87"/><stop offset="0.556962" stop-color="#C84F87"/><stop offset="0.563291" stop-color="#C74F87"/><stop offset="0.56962" stop-color="#C64F88"/><stop offset="0.575949" stop-color="#C54F88"/><stop offset="0.582278" stop-color="#C44F89"/><stop offset="0.588608" stop-color="#C34F89"/><stop offset="0.594937" stop-color="#C14F89"/><stop offset="0.601266" stop-color="#C04F8A"/><stop offset="0.607595" stop-color="#BF4F8A"/><stop offset="0.613924" stop-color="#BE4F8B"/><stop offset="0.620253" stop-color="#BD508B"/><stop offset="0.626582" stop-color="#BB508B"/><stop offset="0.632911" stop-color="#BA508C"/><stop offset="0.639241" stop-color="#B9508C"/><stop offset="0.64557" stop-color="#B8508C"/><stop offset="0.651899" stop-color="#B6508D"/><stop offset="0.658228" stop-color="#B5508D"/><stop offset="0.664557" stop-color="#B4508D"/><stop offset="0.670886" stop-color="#B2508E"/><stop offset="0.677215" stop-color="#B1508E"/><stop offset="0.683544" stop-color="#B0508E"/><stop offset="0.689873" stop-color="#AE508F"/><stop offset="0.696203" stop-color="#AD508F"/><stop offset="0.702532" stop-color="#AB508F"/><stop offset="0.708861" stop-color="#AA508F"/><stop offset="0.71519" stop-color="#A95090"/><stop offset="0.721519" stop-color="#A75090"/><stop offset="0.727848" stop-color="#A65090"/><stop offset="0.734177" stop-color="#A45091"/><stop offset="0.740506" stop-color="#A35191"/><stop offset="0.746835" stop-color="#A25191"/><stop offset="0.753165" stop-color="#A05191"/><stop offset="0.759494" stop-color="#9F5192"/><stop offset="0.765823" stop-color="#9D5192"/><stop offset="0.772152" stop-color="#9C5192"/><stop offset="0.778481" stop-color="#9A5192"/><stop offset="0.78481" stop-color="#995193"/><stop offset="0.791139" stop-color="#975193"/><stop offset="0.797468" stop-color="#955193"/><stop offset="0.803797" stop-color="#945193"/><stop offset="0.810127" stop-color="#925193"/><stop offset="0.816456" stop-color="#915194"/><stop offset="0.822785" stop-color="#8F5194"/><stop offset="0.829114" stop-color="#8E5194"/><stop offset="0.835443" stop-color="#8C5194"/><stop offset="0.841772" stop-color="#8A5194"/><stop offset="0.848101" stop-color="#895194"/><stop offset="0.85443" stop-color="#875195"/><stop offset="0.860759" stop-color="#855195"/><stop offset="0.867089" stop-color="#845195"/><stop offset="0.873418" stop-color="#825195"/><stop offset="0.879747" stop-color="#805195"/><stop offset="0.886076" stop-color="#7F5195"/><stop offset="0.892405" stop-color="#7D5195"/><stop offset="0.898734" stop-color="#7B5196"/><stop offset="0.905063" stop-color="#7A5196"/><stop offset="0.911392" stop-color="#785196"/><stop offset="0.917722" stop-color="#765196"/><stop offset="0.924051" stop-color="#745196"/><stop offset="0.93038" stop-color="#735196"/><stop offset="0.936709" stop-color="#715196"/><stop offset="0.943038" stop-color="#6F5196"/><stop offset="0.949367" stop-color="#6D5196"/><stop offset="0.955696" stop-color="#6B5196"/><stop offset="0.962025" stop-color="#6A5196"/><stop offset="0.968354" stop-color="#685196"/><stop offset="0.974684" stop-color="#665196"/><stop offset="0.981013" stop-color="#645196"/><stop offset="0.987342" stop-color="#625196"/><stop offset="0.993671" stop-color="#605196"/><stop offset="1" stop-color="#5F5297"/></linearGradient><linearGradient x1="2206" y1="826" x2="2611" y2="1231" gradientUnits="userSpaceOnUse" spreadMethod="reflect" id="fill74"><stop offset="0" stop-color="#FE4650"/><stop offset="0.22" stop-color="#FE4650"/><stop offset="1" stop-color="#F6AE48"/></linearGradient><linearGradient x1="2206" y1="1655" x2="2611" y2="1250" gradientUnits="userSpaceOnUse" spreadMethod="reflect" id="fill75"><stop offset="0" stop-color="#318C7B"/><stop offset="0.13" stop-color="#318C7B"/><stop offset="1" stop-color="#F6AE48"/></linearGradient><linearGradient x1="2187" y1="1655" x2="1782" y2="1250" gradientUnits="userSpaceOnUse" spreadMethod="reflect" id="fill76"><stop offset="0" stop-color="#318C7B"/><stop offset="0.13" stop-color="#318C7B"/><stop offset="1" stop-color="#5F5297"/></linearGradient></defs><g clip-path="url(#clip24)" transform="translate(-1099 -161)"><path d="M2029.5 455.5C2029.5 364.373 2103.6 290.5 2195 290.5 2286.4 290.5 2360.5 364.373 2360.5 455.5 2360.5 546.627 2286.4 620.5 2195 620.5 2103.6 620.5 2029.5 546.627 2029.5 455.5Z" stroke="#FB6A4B" stroke-width="4.58333" stroke-miterlimit="8" fill="#FE4650" fill-rule="evenodd"/><g clip-path="url(#clip25)" filter="url(#fx0)" transform="translate(1962 281)"><g clip-path="url(#clip26)"><path d="M75.457 0.0917969 39.0137 0C27.4473 0 21.6641-3.64128 21.6641-10.9238 21.6641-19.1243 28.1204-23.2246 41.0332-23.2246 42.2572-23.2246 43.6035-23.194 45.0723-23.1328L45.0723-104.557C39.748-100.885 36.2904-99.0488 34.6992-99.0488 31.2721-99.0488 28.2887-100.273 25.749-102.721 23.2093-105.169 21.9394-108.014 21.9395-111.258 21.9394-114.624 23.9896-118.081 28.0898-121.631L38.4629-129.158 49.6621-138.154C54.2519-141.459 58.6888-143.111 62.9727-143.111 68.4805-143.111 71.2344-139.807 71.2344-133.197 71.2344-125.915 70.9284-115.664 70.3164-102.445 69.7044-89.2266 69.3984-70.347 69.3984-45.8066L69.3984-23.5918 75.457-23.5918C79.0065-23.5918 81.9899-22.4596 84.4072-20.1953 86.8245-17.931 88.0332-15.1159 88.0332-11.75 88.0332-8.38411 86.8245-5.56901 84.4072-3.30469 81.9899-1.04036 79.0065 0.0917969 75.457 0.0917969ZM207.115 0.183594C205.585 0.183594 203.213-0.0764974 200-0.59668 196.787-1.11686 194.477-1.37695 193.07-1.37695L166.081-1.46875C163.756-1.46875 160.237-1.17806 155.525-0.59668 150.812-0.0152995 147.263 0.275391 144.876 0.275391 144.203 0.275391 143.224 0.152995 141.939-0.0917969 140.654-0.336589 139.674-0.458984 139.001-0.458984 133.493-0.458984 129.76-2.69271 127.802-7.16016 126.578-9.97526 125.966-14.3203 125.966-20.1953 125.966-31.6393 128.506-41.2168 133.585-48.9277 137.502-54.8639 143.836-60.8001 152.587-66.7363 160.849-72.1829 169.08-77.599 177.281-82.9844 186.95-90.0221 191.784-98.0085 191.784-106.943 191.784-109.269 189.857-111.579 186.001-113.874 182.146-116.169 178.382-117.316 174.71-117.316 168.223-117.316 161.354-114.425 154.102-108.642 146.85-102.858 141.878-99.9668 139.185-99.9668 135.941-99.9668 133.096-100.762 130.648-102.354 127.588-104.312 126.058-107.035 126.058-110.523 126.058-114.257 127.588-117.469 130.648-120.162 138.053-126.71 144.509-131.484 150.017-134.482 157.973-138.827 166.204-141 174.71-141 185.298-141 194.844-138.215 203.351-132.646 213.081-126.282 217.947-117.959 217.947-107.678 217.947-97.2741 215.56-88.431 210.786-81.1484 207.053-75.3346 201.148-69.6738 193.07-64.166 185.42-59.3314 177.77-54.5273 170.12-49.7539 158.493-42.1654 152.251-33.5059 151.394-23.7754 154.76-24.2038 159.717-24.6934 166.265-25.2441 179.3-25.9173 188.633-26.2539 194.263-26.2539 199.526-26.2539 204.728-25.1217 209.868-22.8574 216.233-20.0423 219.415-16.4316 219.415-12.0254 219.415-8.8431 218.283-6.05859 216.019-3.67187 213.632-1.10156 210.664 0.183594 207.115 0.183594Z" fill="#FFFFFF" transform="matrix(1 0 0 1 124.325 245)"/></g></g><text fill="#FFFFFF" font-family="Comic Sans MS,Comic Sans MS_MSFontService,sans-serif" font-weight="700" font-size="188" transform="matrix(1 0 0 1 2079.9 520)">12</text><path d="M2437.5 566.5C2437.5 475.373 2511.6 401.5 2603 401.5 2694.4 401.5 2768.5 475.373 2768.5 566.5 2768.5 657.627 2694.4 731.5 2603 731.5 2511.6 731.5 2437.5 657.627 2437.5 566.5Z" stroke="#FE964F" stroke-width="4.58333" stroke-miterlimit="8" fill="#FB6A4B" fill-rule="evenodd"/><g clip-path="url(#clip27)" filter="url(#fx1)" transform="translate(2427 392)"><g clip-path="url(#clip28)"><path d="M75.457 0.0917969 39.0137 0C27.4473 0 21.6641-3.64128 21.6641-10.9238 21.6641-19.1243 28.1204-23.2246 41.0332-23.2246 42.2572-23.2246 43.6035-23.194 45.0723-23.1328L45.0723-104.557C39.748-100.885 36.2904-99.0488 34.6992-99.0488 31.2721-99.0488 28.2887-100.273 25.749-102.721 23.2093-105.169 21.9394-108.014 21.9395-111.258 21.9394-114.624 23.9896-118.081 28.0898-121.631L38.4629-129.158 49.6621-138.154C54.2519-141.459 58.6888-143.111 62.9727-143.111 68.4805-143.111 71.2344-139.807 71.2344-133.197 71.2344-125.915 70.9284-115.664 70.3164-102.445 69.7044-89.2266 69.3984-70.347 69.3984-45.8066L69.3984-23.5918 75.457-23.5918C79.0065-23.5918 81.9899-22.4596 84.4072-20.1953 86.8245-17.931 88.0332-15.1159 88.0332-11.75 88.0332-8.38411 86.8245-5.56901 84.4072-3.30469 81.9899-1.04036 79.0065 0.0917969 75.457 0.0917969Z" fill="#FFFFFF" transform="matrix(1 0 0 1 124.318 246)"/></g></g><text fill="#FFFFFF" font-family="Comic Sans MS,Comic Sans MS_MSFontService,sans-serif" font-weight="700" font-size="188" transform="matrix(1 0 0 1 2544.9 632)">1</text><path d="M2722.5 861.5C2722.5 770.373 2796.6 696.5 2888 696.5 2979.4 696.5 3053.5 770.373 3053.5 861.5 3053.5 952.627 2979.4 1026.5 2888 1026.5 2796.6 1026.5 2722.5 952.627 2722.5 861.5Z" stroke="#94B660" stroke-width="4.58333" stroke-miterlimit="8" fill="#FE964F" fill-rule="evenodd"/><g clip-path="url(#clip29)" filter="url(#fx2)" transform="translate(2713 688)"><g clip-path="url(#clip30)"><path d="M92.5312 0.183594C91.0013 0.183594 88.6299-0.0764974 85.417-0.59668 82.2041-1.11686 79.8939-1.37695 78.4863-1.37695L51.498-1.46875C49.1725-1.46875 45.6536-1.17806 40.9414-0.59668 36.2292-0.0152995 32.6797 0.275391 30.293 0.275391 29.6198 0.275391 28.6406 0.152995 27.3555-0.0917969 26.0703-0.336589 25.0911-0.458984 24.418-0.458984 18.9102-0.458984 15.1771-2.69271 13.2187-7.16016 11.9948-9.97526 11.3828-14.3203 11.3828-20.1953 11.3828-31.6393 13.9225-41.2168 19.002-48.9277 22.9186-54.8639 29.2526-60.8001 38.0039-66.7363 46.2656-72.1829 54.4967-77.599 62.6973-82.9844 72.3665-90.0221 77.2012-98.0085 77.2012-106.943 77.2012-109.269 75.2734-111.579 71.418-113.874 67.5625-116.169 63.7988-117.316 60.1269-117.316 53.64-117.316 46.7705-114.425 39.5186-108.642 32.2666-102.858 27.2943-99.9668 24.6016-99.9668 21.3581-99.9668 18.5124-100.762 16.0645-102.354 13.0046-104.312 11.4746-107.035 11.4746-110.523 11.4746-114.257 13.0046-117.469 16.0645-120.162 23.4694-126.71 29.9258-131.484 35.4336-134.482 43.3893-138.827 51.6204-141 60.1269-141 70.7142-141 80.2611-138.215 88.7676-132.646 98.498-126.282 103.363-117.959 103.363-107.678 103.363-97.2741 100.977-88.431 96.2031-81.1484 92.47-75.3346 86.5644-69.6738 78.4863-64.166 70.8366-59.3314 63.1868-54.5273 55.5371-49.7539 43.9095-42.1654 37.6673-33.5059 36.8105-23.7754 40.1764-24.2038 45.1335-24.6934 51.6816-25.2441 64.7168-25.9173 74.0495-26.2539 79.6797-26.2539 84.9427-26.2539 90.1445-25.1217 95.2851-22.8574 101.65-20.0423 104.832-16.4316 104.832-12.0254 104.832-8.8431 103.7-6.05859 101.436-3.67187 99.0488-1.10156 96.0807 0.183594 92.5312 0.183594Z" fill="#FFFFFF" transform="matrix(1 0 0 1 123.917 245)"/></g></g><text fill="#FFFFFF" font-family="Comic Sans MS,Comic Sans MS_MSFontService,sans-serif" font-weight="700" font-size="188" transform="matrix(1 0 0 1 2830.49 927)">2</text><path d="M2815.5 1242.5C2815.5 1151.37 2889.6 1077.5 2981 1077.5 3072.4 1077.5 3146.5 1151.37 3146.5 1242.5 3146.5 1333.63 3072.4 1407.5 2981 1407.5 2889.6 1407.5 2815.5 1333.63 2815.5 1242.5Z" stroke="#94B660" stroke-width="4.58333" stroke-miterlimit="8" fill="#F6AE48" fill-rule="evenodd"/><g clip-path="url(#clip31)" filter="url(#fx3)" transform="translate(2806 1068)"><g clip-path="url(#clip32)"><path d="M84.1777-74.3555C96.7845-67.3177 103.088-56.0573 103.088-40.5742 103.088-28.0898 98.4674-17.5026 89.2266-8.8125 79.9857-0.122396 68.7559 4.22266 55.5371 4.22266 45.6842 4.22266 36.8105 2.23372 28.916-1.74414 19.7975-6.39518 13.6471-13.0046 10.4648-21.5723 9.97526-22.8574 9.73047-24.2344 9.73047-25.7031 9.73047-29.1302 11.1074-31.9759 13.8613-34.2402 16.4316-36.321 19.3691-37.3613 22.6738-37.3613 26.5293-37.3613 29.6198-35.8314 31.9453-32.7715 35.862-27.5085 38.1263-24.6322 38.7383-24.1426 42.5325-21.0827 48.1322-19.5527 55.5371-19.5527 61.3509-19.5527 66.4456-21.2969 70.8213-24.7852 75.1969-28.2734 77.3848-32.4655 77.3848-37.3613 77.3848-52.5996 67.1341-61.2285 46.6328-63.248 37.6367-64.1048 33.1387-67.8685 33.1387-74.5391 33.1387-79.6185 36.6269-83.321 43.6035-85.6465 50.2129-87.1152 56.7917-88.6146 63.3398-90.1445 67.5013-91.4297 70.6224-93.1126 72.7031-95.1934 74.7838-97.2741 75.8548-99.7526 75.916-102.629 76.1608-111.747 69.0312-116.307 54.5273-116.307 49.7539-116.307 44.5215-114.486 38.8301-110.845 33.1387-107.203 29.2526-105.383 27.1719-105.383 23.6836-105.383 20.7155-106.637 18.2676-109.146 15.8197-111.656 14.5957-114.501 14.5957-117.684 14.5957-122.885 19.7363-128.057 30.0176-133.197 39.1973-137.787 46.6634-140.082 52.416-140.082 66.3079-140.082 77.4766-137.083 85.9219-131.086 95.1628-124.477 99.7832-115.052 99.7832-102.812 99.7832-96.0807 98.4827-90.3434 95.8818-85.6006 93.2809-80.8577 89.3795-77.1094 84.1777-74.3555Z" fill="#FFFFFF" transform="matrix(1 0 0 1 124.016 245)"/></g></g><text fill="#FFFFFF" font-family="Comic Sans MS,Comic Sans MS_MSFontService,sans-serif" font-weight="700" font-size="188" transform="matrix(1 0 0 1 2923.59 1307)">3</text><path d="M2707.5 1639.5C2707.5 1548.37 2781.6 1474.5 2873 1474.5 2964.4 1474.5 3038.5 1548.37 3038.5 1639.5 3038.5 1730.63 2964.4 1804.5 2873 1804.5 2781.6 1804.5 2707.5 1730.63 2707.5 1639.5Z" stroke="#6AB16F" stroke-width="4.58333" stroke-miterlimit="8" fill="#94B660" fill-rule="evenodd"/><g clip-path="url(#clip33)" filter="url(#fx4)" transform="translate(2697 1465)"><g clip-path="url(#clip34)"><path d="M66.8281-37.9121 30.2012-37.9121C10.5566-37.9121 0.734375-41.9206 0.734375-49.9375 0.734375-53.3034 2.44792-57.0671 5.875-61.2285 8.6901-64.4108 11.5358-67.6237 14.4121-70.8672 24.265-84.9427 39.2891-105.872 59.4844-133.656 64.2578-140.021 70.4694-143.203 78.1191-143.203 81.7298-143.203 84.8509-142.285 87.4824-140.449 90.6035-138.246 92.164-135.156 92.1641-131.178L92.2559-62.1465C100.273-61.9017 105.628-61.0755 108.32-59.668 111.319-58.0156 112.818-54.7721 112.818-49.9375 112.88-44.8581 110.554-41.3698 105.842-39.4727 102.537-38.1875 98.0085-37.6673 92.2559-37.9121 92.4394-29.0996 92.4088-19.5527 92.1641-9.27148 92.1029-5.9056 91.0013-3.12109 88.8594-0.917969 86.7174 1.28516 83.8105 2.38672 80.1387 2.38672 70.8366 2.38672 66.3997-3.73307 66.8281-15.9727ZM66.8281-103.363C60.8919-94 51.7428-80.2611 39.3809-62.1465L66.8281-62.1465Z" fill="#FFFFFF" transform="matrix(1 0 0 1 124.233 245)"/></g></g><text fill="#FFFFFF" font-family="Comic Sans MS,Comic Sans MS_MSFontService,sans-serif" font-weight="700" font-size="188" transform="matrix(1 0 0 1 2814.81 1704)">4</text><path d="M2429.5 1923.5C2429.5 1832.37 2503.6 1758.5 2595 1758.5 2686.4 1758.5 2760.5 1832.37 2760.5 1923.5 2760.5 2014.63 2686.4 2088.5 2595 2088.5 2503.6 2088.5 2429.5 2014.63 2429.5 1923.5Z" stroke="#318C7B" stroke-width="4.58333" stroke-miterlimit="8" fill="#6AB16F" fill-rule="evenodd"/><g clip-path="url(#clip35)" filter="url(#fx5)" transform="translate(2419 1749)"><g clip-path="url(#clip36)"><path d="M51.5898 5.7832C32.8633 5.7832 19.0631-0.88737 10.1895-14.2285 8.6595-16.554 7.89453-18.7878 7.89453-20.9297 7.89453-24.2344 9.21029-27.0495 11.8418-29.375 14.4733-31.7005 17.472-32.8633 20.8379-32.8633 24.265-32.8633 27.2025-31.5781 29.6504-29.0078 33.9342-24.5404 36.2598-22.1536 36.6269-21.8477 40.2376-19.2773 45.2253-17.9922 51.5898-17.9922 61.0143-17.9922 68.8782-21.4499 75.1816-28.3652 81.2402-35.0358 84.2695-43.1139 84.2695-52.5996 84.2695-61.7181 82.7549-68.5417 79.7256-73.0703 76.6963-77.599 72.1217-79.8633 66.0019-79.8633 55.2311-79.8633 46.5716-76.375 40.0234-69.3984 37.4531-66.4609 34.8522-63.554 32.2207-60.6777 28.916-57.5566 25.3971-55.9961 21.6641-55.9961 18.1758-55.9961 15.223-57.1894 12.8057-59.5762 10.3883-61.9629 9.17969-64.778 9.17969-68.0215 9.17969-69.429 9.69987-74.7532 10.7402-83.9941 12.7598-101.925 13.7695-113.859 13.7695-119.795 13.7695-121.264 13.234-123.283 12.1631-125.854 11.0921-128.424 10.5566-130.443 10.5566-131.912 10.5566-134.972 12.1172-137.298 15.2383-138.889 17.6862-140.113 20.5625-140.725 23.8672-140.725 25.0911-140.725 26.9424-140.617 29.4209-140.403 31.8994-140.189 33.7506-140.082 34.9746-140.082L79.1289-139.99C80.2305-139.99 82.5866-140.174 86.1973-140.541 89.8079-140.908 92.1946-141.092 93.3574-141.092 96.6621-141.092 99.3854-140.036 101.527-137.925 103.669-135.813 104.74-133.105 104.74-129.801 104.74-120.682 95.4687-116.123 76.9258-116.123 75.457-116.123 73.6058-116.154 71.3721-116.215 69.1383-116.276 67.6543-116.307 66.9199-116.307L39.5644-116.307C39.3809-112.574 38.6159-106.393 37.2695-97.7637 45.2865-101.68 54.8639-103.639 66.0019-103.639 80.873-103.639 92.164-98.1003 99.875-87.0234 106.301-77.9049 109.514-66.4303 109.514-52.5996 109.514-35.9538 104.373-22.1842 94.0918-11.291 83.3822 0.0917966 69.2148 5.7832 51.5898 5.7832Z" fill="#FFFFFF" transform="matrix(1 0 0 1 124.297 245)"/></g></g><text fill="#FFFFFF" font-family="Comic Sans MS,Comic Sans MS_MSFontService,sans-serif" font-weight="700" font-size="188" transform="matrix(1 0 0 1 2536.87 1988)">5</text><path d="M2033.5 2026.5C2033.5 1935.37 2107.6 1861.5 2199 1861.5 2290.4 1861.5 2364.5 1935.37 2364.5 2026.5 2364.5 2117.63 2290.4 2191.5 2199 2191.5 2107.6 2191.5 2033.5 2117.63 2033.5 2026.5Z" stroke="#104C93" stroke-width="4.58333" stroke-miterlimit="8" fill="#318C7B" fill-rule="evenodd"/><g clip-path="url(#clip37)" filter="url(#fx6)" transform="translate(2024 1853)"><g clip-path="url(#clip38)"><path d="M56.5469 6.60937C39.2279 6.60937 26.4375 0.489583 18.1758-11.75 11.5664-21.5417 8.26172-34.3932 8.26172-50.3047 8.26172-80.1081 20.9297-105.934 46.2656-127.781 49.4479-130.841 52.6302-133.87 55.8125-136.869 60.2799-140.847 63.9824-142.836 66.9199-142.836 70.2858-142.836 73.2539-141.688 75.8242-139.394 78.3945-137.099 79.7409-134.329 79.8633-131.086 79.9857-128.026 76.4974-123.1 69.3984-116.307 64.319-111.656 59.2702-107.035 54.2519-102.445 48.6217-96.9375 44.5521-91.5521 42.043-86.2891 45.3476-87.5742 48.4228-88.5228 51.2686-89.1348 54.1143-89.7467 56.7305-90.0527 59.1172-90.0527 74.4167-90.0527 86.2585-86.0596 94.6426-78.0732 103.027-70.0869 107.219-58.9642 107.219-44.7051 107.219-29.8952 102.782-17.7474 93.9082-8.26172 84.5449 1.65234 72.0911 6.60937 56.5469 6.60937ZM56.5469-65.2676C52.0182-65.2676 47.9486-64.5332 44.3379-63.0644 42.4408-62.2689 38.9525-60.3411 33.873-57.2812 33.6283-54.7721 33.5059-52.4466 33.5059-50.3047 33.5059-38.7383 35.4642-30.0635 39.3809-24.2803 43.2975-18.4971 49.1725-15.6055 57.0059-15.6055 65.0228-15.6055 71.2344-18.2982 75.6406-23.6836 79.8633-28.8242 81.9746-35.8314 81.9746-44.7051 81.9746-51.5592 79.8633-56.6999 75.6406-60.1269 71.418-63.554 65.0534-65.2676 56.5469-65.2676Z" fill="#FFFFFF" transform="matrix(1 0 0 1 123.913 245)"/></g></g><text fill="#FFFFFF" font-family="Comic Sans MS,Comic Sans MS_MSFontService,sans-serif" font-weight="700" font-size="188" transform="matrix(1 0 0 1 2141.49 2092)">6</text><path d="M1643.5 1918.5C1643.5 1827.37 1717.6 1753.5 1809 1753.5 1900.4 1753.5 1974.5 1827.37 1974.5 1918.5 1974.5 2009.63 1900.4 2083.5 1809 2083.5 1717.6 2083.5 1643.5 2009.63 1643.5 1918.5Z" stroke="#2E6EB6" stroke-width="4.58333" stroke-miterlimit="8" fill="#104C93" fill-rule="evenodd"/><g clip-path="url(#clip39)" filter="url(#fx7)" transform="translate(1634 1744)"><g clip-path="url(#clip40)"><path d="M74.0801-113.277C67.2259-113.339 54.4661-113.614 35.8008-114.104 31.1497-114.104 24.2038-114.318 14.9629-114.746 6.82357-115.419 2.75391-119.367 2.75391-126.588 2.75391-129.954 3.97786-132.769 6.42578-135.033 8.8737-137.298 11.8724-138.43 15.4219-138.43 23.1328-138.43 34.7145-138.2 50.167-137.741 65.6195-137.282 77.2012-137.053 84.9121-137.053L101.711-137.053C105.016-137.053 107.923-136.41 110.432-135.125 113.553-133.534 115.113-131.178 115.113-128.057 115.113-124.691 113.277-120.682 109.605-116.031 106.546-112.604 103.455-109.177 100.334-105.75 92.5618-97.1211 85.3711-86.5338 78.7617-73.9883 76.681-70.0716 71.2038-58.597 62.3301-39.5644 61.1673-37.0553 58.5664-30.2012 54.5273-19.002 51.4674-10.5566 48.3463-3.94727 45.1641 0.826172 42.7161 4.31445 39.3197 6.05859 34.9746 6.05859 31.6087 6.05859 28.61 4.92643 25.9785 2.66211 23.347 0.397786 22.0312-2.41732 22.0312-5.7832 22.0312-8.41471 24.0814-14.5345 28.1816-24.1426 34.791-39.5644 41.3698-54.9863 47.918-70.4082 56.3633-88.4004 65.084-102.69 74.0801-113.277Z" fill="#FFFFFF" transform="matrix(1 0 0 1 123.543 245)"/></g></g><text fill="#FFFFFF" font-family="Comic Sans MS,Comic Sans MS_MSFontService,sans-serif" font-weight="700" font-size="188" transform="matrix(1 0 0 1 1751.12 1983)">7</text><path d="M1355.5 1627.5C1355.5 1536.37 1429.6 1462.5 1521 1462.5 1612.4 1462.5 1686.5 1536.37 1686.5 1627.5 1686.5 1718.63 1612.4 1792.5 1521 1792.5 1429.6 1792.5 1355.5 1718.63 1355.5 1627.5Z" stroke="#5F5297" stroke-width="4.58333" stroke-miterlimit="8" fill="#2E6EB6" fill-rule="evenodd"/><g clip-path="url(#clip41)" filter="url(#fx8)" transform="translate(1346 1453)"><g clip-path="url(#clip42)"><path d="M56.3633 4.95703C42.7773 4.95703 31.6393 2.08073 22.9492-3.67187 12.8516-10.4036 7.71094-20.2259 7.52734-33.1387 7.22135-51.1921 13.1576-64.1354 25.3359-71.9687 16.4622-79.0065 12.0254-87.8496 12.0254-98.498 12.0254-110.554 16.6152-120.56 25.7949-128.516 34.5462-136.104 45.1029-139.96 57.4648-140.082 72.0911-140.204 83.0456-136.318 90.3281-128.424 96.5703-121.57 99.6914-112.206 99.6914-100.334 99.6914-93.6634 98.498-88.3086 96.1113-84.2695 93.9694-80.6588 90.3893-77.3848 85.3711-74.4473 92.8372-70.2858 98.192-65.4512 101.436-59.9434 105.169-53.8236 107.035-45.776 107.035-35.8008 107.035-22.7044 101.925-12.4538 91.7051-5.04883 82.4642 1.62174 70.6836 4.95703 56.3633 4.95703ZM57.1894-117.5C43.7871-117.5 37.1471-111.197 37.2695-98.5898 37.3307-92.2865 43.1139-87.666 54.6191-84.7285 61.0449-86.5032 65.4818-88.125 67.9297-89.5937 72.2747-92.2253 74.4473-95.8053 74.4473-100.334 74.4473-107.188 72.9785-111.87 70.041-114.379 67.5931-116.46 63.3092-117.5 57.1894-117.5ZM55.8125-61.8711C47-58.0156 41.1862-54.6191 38.3711-51.6816 34.2708-47.5814 32.3431-41.737 32.5879-34.1484 32.7715-28.2122 35.6478-23.7448 41.2168-20.7461 45.5618-18.4206 50.6107-17.2578 56.3633-17.2578 65.9713-17.2578 72.5807-19.2773 76.1914-23.3164 79.0065-26.4987 80.4141-31.5781 80.4141-38.5547 80.4141-44.8581 77.9355-49.9681 72.9785-53.8848 69.2454-56.8223 63.5234-59.4844 55.8125-61.8711Z" fill="#FFFFFF" transform="matrix(1 0 0 1 123.797 245)"/></g></g><text fill="#FFFFFF" font-family="Comic Sans MS,Comic Sans MS_MSFontService,sans-serif" font-weight="700" font-size="188" transform="matrix(1 0 0 1 1463.37 1692)">8</text><path d="M1250.5 1242.5C1250.5 1151.37 1324.6 1077.5 1416 1077.5 1507.4 1077.5 1581.5 1151.37 1581.5 1242.5 1581.5 1333.63 1507.4 1407.5 1416 1407.5 1324.6 1407.5 1250.5 1333.63 1250.5 1242.5Z" stroke="#953575" stroke-width="4.58333" stroke-miterlimit="8" fill="#5F5297" fill-rule="evenodd"/><g clip-path="url(#clip43)" filter="url(#fx9)" transform="translate(1241 1068)"><g clip-path="url(#clip44)"><path d="M72.5195-49.7539C68.7865-48.4687 65.3747-47.5049 62.2842-46.8623 59.1937-46.2197 56.4245-45.8984 53.9766-45.8984 41.6758-45.8984 30.9355-49.2031 21.7559-55.8125 10.4954-63.8906 4.86523-75.4264 4.86523-90.4199 4.86523-107.8 10.6178-120.927 22.123-129.801 31.7923-137.267 44.3685-141 59.8516-141 72.1523-141 83.1068-136.257 92.7148-126.771 102.812-116.857 107.892-104.863 107.953-90.7871 108.014-75.4876 105.046-60.6471 99.0488-46.2656 92.5618-30.6602 83.6881-18.8796 72.4277-10.9238 67.7155-7.61914 60.3411-3.67187 50.3047 0.917969 38.7995 6.11979 30.6602 8.7207 25.8867 8.7207 22.276 8.7207 19.2773 7.43555 16.8906 4.86523 14.6875 2.47852 13.5859-0.30599 13.5859-3.48828 13.5859-8.38411 16.5234-12.1172 22.3984-14.6875 27.4167-16.2786 32.4349-17.9004 37.4531-19.5527 46.388-22.9798 53.4105-26.8812 58.5205-31.2568 63.6305-35.6325 68.2969-41.7982 72.5195-49.7539ZM57.1894-119.061C48.1322-119.061 41.3392-116.812 36.8105-112.313 32.2819-107.815 29.987-101.038 29.9258-91.9805 29.9258-84.6367 32.5879-78.9147 37.9121-74.8144 42.7467-71.1426 48.9889-69.3066 56.6387-69.3066 59.6986-69.3066 63.3245-70.2552 67.5166-72.1523 71.7086-74.0495 76.4668-76.8952 81.791-80.6894 82.403-84.9733 82.709-88.3392 82.709-90.7871 82.6478-97.2129 79.7409-103.577 73.9883-109.881 68.2969-116.001 62.6973-119.061 57.1894-119.061Z" fill="#FFFFFF" transform="matrix(1 0 0 1 123.809 245)"/></g></g><text fill="#FFFFFF" font-family="Comic Sans MS,Comic Sans MS_MSFontService,sans-serif" font-weight="700" font-size="188" transform="matrix(1 0 0 1 1358.39 1307)">9</text><path d="M1354.5 853.5C1354.5 762.373 1428.37 688.5 1519.5 688.5 1610.63 688.5 1684.5 762.373 1684.5 853.5 1684.5 944.627 1610.63 1018.5 1519.5 1018.5 1428.37 1018.5 1354.5 944.627 1354.5 853.5Z" stroke="#C23249" stroke-width="4.58333" stroke-miterlimit="8" fill="#953575" fill-rule="evenodd"/><g clip-path="url(#clip45)" filter="url(#fx10)" transform="translate(1287 680)"><g clip-path="url(#clip46)"><path d="M75.457 0.0917969 39.0137 0C27.4473 0 21.6641-3.64128 21.6641-10.9238 21.6641-19.1243 28.1204-23.2246 41.0332-23.2246 42.2572-23.2246 43.6035-23.194 45.0723-23.1328L45.0723-104.557C39.748-100.885 36.2904-99.0488 34.6992-99.0488 31.2721-99.0488 28.2887-100.273 25.749-102.721 23.2093-105.169 21.9394-108.014 21.9395-111.258 21.9394-114.624 23.9896-118.081 28.0898-121.631L38.4629-129.158 49.6621-138.154C54.2519-141.459 58.6888-143.111 62.9727-143.111 68.4805-143.111 71.2344-139.807 71.2344-133.197 71.2344-125.915 70.9284-115.664 70.3164-102.445 69.7044-89.2266 69.3984-70.347 69.3984-45.8066L69.3984-23.5918 75.457-23.5918C79.0065-23.5918 81.9899-22.4596 84.4072-20.1953 86.8245-17.931 88.0332-15.1159 88.0332-11.75 88.0332-8.38411 86.8245-5.56901 84.4072-3.30469 81.9899-1.04036 79.0065 0.0917969 75.457 0.0917969ZM170.671 3.58008C150.415 3.58008 135.727-5.17122 126.609-22.6738 119.877-35.6478 116.511-52.3854 116.511-72.8867 116.511-90.3893 120.948-105.75 129.822-118.969 140.47-134.819 155.035-142.744 173.517-142.744 191.02-142.744 204.605-135.676 214.275-121.539 222.414-109.605 226.484-95.1933 226.484-78.3027 226.484-51.0085 221.833-30.5378 212.531-16.8906 203.228-3.24349 189.275 3.58008 170.671 3.58008ZM173.425-118.877C163.511-118.877 155.555-113.951 149.558-104.098 144.295-95.5299 141.663-85.5853 141.663-74.2637 141.663-59.3314 143.071-47.8262 145.886-39.748 150.415-26.7129 158.676-20.1953 170.671-20.1953 180.708-20.1953 188.235-24.7699 193.253-33.9189 198.271-43.068 200.781-56.7917 200.781-75.0898 200.781-89.7161 198.501-100.671 193.942-107.953 189.382-115.236 182.544-118.877 173.425-118.877Z" fill="#FFFFFF" transform="matrix(1 0 0 1 123.787 245)"/></g></g><text fill="#FFFFFF" font-family="Comic Sans MS,Comic Sans MS_MSFontService,sans-serif" font-weight="700" font-size="188" transform="matrix(1 0 0 1 1404.36 919)">10</text><path d="M1633.5 571.5C1633.5 480.373 1707.6 406.5 1799 406.5 1890.4 406.5 1964.5 480.373 1964.5 571.5 1964.5 662.627 1890.4 736.5 1799 736.5 1707.6 736.5 1633.5 662.627 1633.5 571.5Z" stroke="#FE4650" stroke-width="4.58333" stroke-miterlimit="8" fill="#C23249" fill-rule="evenodd"/><g clip-path="url(#clip47)" filter="url(#fx11)" transform="translate(1567 398)"><g clip-path="url(#clip48)"><path d="M75.457 0.0917969 39.0137 0C27.4473 0 21.6641-3.64128 21.6641-10.9238 21.6641-19.1243 28.1204-23.2246 41.0332-23.2246 42.2572-23.2246 43.6035-23.194 45.0723-23.1328L45.0723-104.557C39.748-100.885 36.2904-99.0488 34.6992-99.0488 31.2721-99.0488 28.2887-100.273 25.749-102.721 23.2093-105.169 21.9394-108.014 21.9395-111.258 21.9394-114.624 23.9896-118.081 28.0898-121.631L38.4629-129.158 49.6621-138.154C54.2519-141.459 58.6888-143.111 62.9727-143.111 68.4805-143.111 71.2344-139.807 71.2344-133.197 71.2344-125.915 70.9284-115.664 70.3164-102.445 69.7044-89.2266 69.3984-70.347 69.3984-45.8066L69.3984-23.5918 75.457-23.5918C79.0065-23.5918 81.9899-22.4596 84.4072-20.1953 86.8245-17.931 88.0332-15.1159 88.0332-11.75 88.0332-8.38411 86.8245-5.56901 84.4072-3.30469 81.9899-1.04036 79.0065 0.0917969 75.457 0.0917969ZM190.04 0.0917969 153.597 0C142.031 0 136.247-3.64128 136.247-10.9238 136.247-19.1243 142.704-23.2246 155.617-23.2246 156.84-23.2246 158.187-23.194 159.656-23.1328L159.656-104.557C154.331-100.885 150.874-99.0488 149.283-99.0488 145.855-99.0488 142.872-100.273 140.332-102.721 137.793-105.169 136.523-108.014 136.523-111.258 136.523-114.624 138.573-118.081 142.673-121.631L153.046-129.158 164.245-138.154C168.835-141.459 173.272-143.111 177.556-143.111 183.064-143.111 185.818-139.807 185.818-133.197 185.818-125.915 185.512-115.664 184.9-102.445 184.288-89.2266 183.982-70.347 183.982-45.8066L183.982-23.5918 190.04-23.5918C193.59-23.5918 196.573-22.4596 198.991-20.1953 201.408-17.931 202.617-15.1159 202.617-11.75 202.617-8.38411 201.408-5.56901 198.991-3.30469 196.573-1.04036 193.59 0.0917969 190.04 0.0917969Z" fill="#FFFFFF" transform="matrix(1 0 0 1 123.511 245)"/></g></g><text fill="#FFFFFF" font-family="Comic Sans MS,Comic Sans MS_MSFontService,sans-serif" font-weight="700" font-size="188" transform="matrix(1 0 0 1 1684.09 637)">11<tspan fill="#D9D9D9" font-family="Calibri,Calibri_MSFontService,sans-serif" font-size="50" x="453.392" y="49">Noon</tspan><tspan fill="#D9D9D9" font-family="Calibri,Calibri_MSFontService,sans-serif" font-size="50" x="484.329" y="104">Or</tspan><tspan fill="#D9D9D9" font-family="Calibri,Calibri_MSFontService,sans-serif" font-size="50" x="414.434" y="159">Midnigh</tspan><tspan fill="#D9D9D9" font-family="Calibri,Calibri_MSFontService,sans-serif" font-size="50" x="588.6" y="159">t</tspan><tspan fill="#D9D9D9" font-family="Calibri,Calibri_MSFontService,sans-serif" font-size="50" x="953.476" y="590">Quarter</tspan><tspan fill="#D9D9D9" font-family="Calibri,Calibri_MSFontService,sans-serif" font-size="50" x="990.991" y="645">past</tspan><tspan fill="#D9D9D9" font-family="Calibri,Calibri_MSFontService,sans-serif" font-size="50" x="-86.9395" y="591">Quarter</tspan><tspan fill="#D9D9D9" font-family="Calibri,Calibri_MSFontService,sans-serif" font-size="50" x="-27.0812" y="646">to</tspan><tspan fill="#D9D9D9" font-family="Calibri,Calibri_MSFontService,sans-serif" font-size="50" x="471.379" y="1139">Half</tspan><tspan fill="#D9D9D9" font-family="Calibri,Calibri_MSFontService,sans-serif" font-size="50" x="469.363" y="1194">past</tspan></text><path d="M2139 168 2247 168 2240.18 264 2146.67 264 2139 168Z" fill="#FA404D" fill-rule="evenodd"/><g clip-path="url(#clip49)" filter="url(#fx12)" transform="translate(2139 164)"><g clip-path="url(#clip50)"><path d="M2.25586-19.8462C2.25586-27.3299 3.60311-32.5667 6.29761-35.5566 8.9921-38.5465 13.0965-40.0415 18.6108-40.0415 21.2606-40.0415 23.4359-39.7148 25.1367-39.0613 26.8376-38.4078 28.2251-37.5574 29.2993-36.51 30.3735-35.4626 31.2195-34.3616 31.8372-33.2068 32.4548-32.052 32.9517-30.7048 33.3276-29.165 34.0617-26.2288 34.4287-23.1673 34.4287-19.9805 34.4287-12.8369 33.2202-7.60905 30.8032-4.29687 28.3862-0.9847 24.2236 0.671387 18.3154 0.671387 15.0033 0.671387 12.3267 0.143229 10.2856-0.913086 8.24463-1.9694 6.57064-3.51807 5.26367-5.55908 4.31478-7.00928 3.57625-8.99211 3.0481-11.5076 2.51994-14.023 2.25586-16.8026 2.25586-19.8462ZM13.1055-19.8193C13.1055-14.8063 13.5486-11.3822 14.4348-9.54712 15.321-7.71199 16.6056-6.79443 18.2886-6.79443 19.3986-6.79443 20.3609-7.18384 21.1755-7.96265 21.9902-8.74145 22.5899-9.97233 22.9749-11.6553 23.3598-13.3382 23.5522-15.9611 23.5522-19.5239 23.5522-24.7518 23.1091-28.2654 22.2229-30.0647 21.3367-31.864 20.0073-32.7637 18.2349-32.7637 16.4266-32.7637 15.1196-31.8461 14.314-30.011 13.5083-28.1759 13.1055-24.7786 13.1055-19.8193Z" fill="#FFFFFF" transform="matrix(1 0 0 1 38.5928 74)"/></g></g><text fill="#FFFFFF" font-family="Arial Black,Arial Black_MSFontService,sans-serif" font-weight="900" font-size="55" transform="matrix(1 0 0 1 2174.72 235)">0</text><path d="M2683.47 283.66 2777.77 338.025 2723.92 417.68 2642.27 370.612 2683.47 283.66Z" fill="#FB6A4B" fill-rule="evenodd"/><g clip-path="url(#clip51)" filter="url(#fx13)" transform="translate(2655 301)"><g clip-path="url(#clip52)"><path d="M6.68701-39.3701 32.6562-39.3701 32.6562-30.6421 15.0659-30.6421 14.126-24.7339C15.3434-25.3068 16.5474-25.7365 17.738-26.0229 18.9286-26.3094 20.1058-26.4526 21.2695-26.4526 25.2083-26.4526 28.4041-25.262 30.8569-22.8809 33.3097-20.4997 34.5361-17.5008 34.5361-13.8843 34.5361-11.342 33.905-8.89811 32.6428-6.55273 31.3806-4.20736 29.5902-2.41699 27.2717-1.18164 24.9532 0.0537109 21.9857 0.671387 18.3691 0.671387 15.7731 0.671387 13.5486 0.425212 11.6956-0.0671387 9.84253-0.559489 8.26701-1.29354 6.96899-2.26929 5.67098-3.24504 4.61914-4.35059 3.81348-5.58594 3.00781-6.82129 2.33643-8.361 1.79932-10.2051L12.8638-11.4136C13.1323-9.64111 13.759-8.29386 14.7437-7.37183 15.7284-6.44979 16.901-5.98877 18.2617-5.98877 19.7835-5.98877 21.0413-6.56616 22.0349-7.72095 23.0286-8.87573 23.5254-10.599 23.5254-12.8906 23.5254-15.236 23.0241-16.9548 22.0215-18.0469 21.0189-19.139 19.6851-19.6851 18.02-19.6851 16.9637-19.6851 15.9432-19.4255 14.9585-18.9062 14.2244-18.5303 13.4188-17.8499 12.5415-16.8652L3.22266-18.208Z" fill="#FFFFFF" transform="matrix(1 0 0 1 39.291 74)"/></g></g><text fill="#FFFFFF" font-family="Arial Black,Arial Black_MSFontService,sans-serif" font-weight="900" font-size="55" transform="matrix(1 0 0 1 2691.42 372)">5</text><path d="M3098.66 658.409 3155.14 751.468 3069.58 795.347 3020.69 714.777 3098.66 658.409Z" fill="#FA404D" fill-rule="evenodd"/><g clip-path="url(#clip53)" filter="url(#fx14)" transform="translate(3011 678)"><g clip-path="url(#clip54)"><path d="M27.0435-40.0415 27.0435 0 15.979 0 15.979-26.2378C14.1886-24.8771 12.4565-23.776 10.7825-22.9346 9.10848-22.0931 7.00928-21.2874 4.48486-20.5176L4.48486-29.4873C8.20882-30.6868 11.1003-32.1281 13.1592-33.811 15.2181-35.494 16.8294-37.5708 17.9932-40.0415ZM38.9225-19.8462C38.9225-27.3299 40.2698-32.5667 42.9643-35.5566 45.6588-38.5465 49.7632-40.0415 55.2775-40.0415 57.9272-40.0415 60.1025-39.7148 61.8034-39.0613 63.5042-38.4078 64.8918-37.5574 65.966-36.51 67.0402-35.4626 67.8861-34.3616 68.5038-33.2068 69.1215-32.052 69.6183-30.7048 69.9943-29.165 70.7283-26.2288 71.0954-23.1673 71.0954-19.9805 71.0954-12.8369 69.8869-7.60905 67.4699-4.29687 65.0529-0.9847 60.8903 0.671387 54.9821 0.671387 51.6699 0.671387 48.9933 0.143229 46.9523-0.913086 44.9113-1.9694 43.2373-3.51807 41.9303-5.55908 40.9814-7.00928 40.2429-8.99211 39.7148-11.5076 39.1866-14.023 38.9225-16.8026 38.9225-19.8462ZM49.7721-19.8193C49.7721-14.8063 50.2152-11.3822 51.1015-9.54712 51.9877-7.71199 53.2723-6.79443 54.9552-6.79443 56.0653-6.79443 57.0276-7.18384 57.8422-7.96265 58.6568-8.74145 59.2566-9.97233 59.6415-11.6553 60.0264-13.3382 60.2189-15.9611 60.2189-19.5239 60.2189-24.7518 59.7758-28.2654 58.8896-30.0647 58.0033-31.864 56.674-32.7637 54.9015-32.7637 53.0933-32.7637 51.7863-31.8461 50.9806-30.011 50.175-28.1759 49.7721-24.7786 49.7721-19.8193Z" fill="#FFFFFF" transform="matrix(1 0 0 1 39.4563 75)"/></g></g><text fill="#FFFFFF" font-family="Arial Black,Arial Black_MSFontService,sans-serif" font-weight="900" font-size="55" transform="matrix(1 0 0 1 3047.58 750)">10</text><path d="M3271 1186 3271 1295 3175 1288.12 3175 1193.74 3271 1186Z" fill="#F6AE48" fill-rule="evenodd"/><g clip-path="url(#clip55)" filter="url(#fx15)" transform="translate(3147 1189)"><g clip-path="url(#clip56)"><path d="M27.0435-40.0415 27.0435 0 15.979 0 15.979-26.2378C14.1886-24.8771 12.4565-23.776 10.7825-22.9346 9.10848-22.0931 7.00928-21.2874 4.48486-20.5176L4.48486-29.4873C8.20882-30.6868 11.1003-32.1281 13.1592-33.811 15.2181-35.494 16.8294-37.5708 17.9932-40.0415ZM43.3537-39.3701 69.3229-39.3701 69.3229-30.6421 51.7326-30.6421 50.7926-24.7339C52.0101-25.3068 53.2141-25.7365 54.4047-26.0229 55.5953-26.3094 56.7725-26.4526 57.9362-26.4526 61.875-26.4526 65.0708-25.262 67.5236-22.8809 69.9764-20.4997 71.2028-17.5008 71.2028-13.8843 71.2028-11.342 70.5717-8.89811 69.3095-6.55273 68.0473-4.20736 66.2569-2.41699 63.9384-1.18164 61.6199 0.0537109 58.6523 0.671387 55.0358 0.671387 52.4398 0.671387 50.2152 0.425212 48.3622-0.0671387 46.5092-0.559489 44.9337-1.29354 43.6357-2.26929 42.3376-3.24504 41.2858-4.35059 40.4801-5.58594 39.6745-6.82129 39.0031-8.361 38.466-10.2051L49.5304-11.4136C49.799-9.64111 50.4256-8.29386 51.4103-7.37183 52.395-6.44979 53.5677-5.98877 54.9284-5.98877 56.4502-5.98877 57.7079-6.56616 58.7016-7.72095 59.6952-8.87573 60.1921-10.599 60.1921-12.8906 60.1921-15.236 59.6908-16.9548 58.6881-18.0469 57.6855-19.139 56.3517-19.6851 54.6867-19.6851 53.6304-19.6851 52.6099-19.4255 51.6252-18.9062 50.8911-18.5303 50.0854-17.8499 49.2082-16.8652L39.8893-18.208Z" fill="#FFFFFF" transform="matrix(1 0 0 1 39.333 74)"/></g></g><text fill="#FFFFFF" font-family="Arial Black,Arial Black_MSFontService,sans-serif" font-weight="900" font-size="55" transform="matrix(1 0 0 1 3183.46 1260)">15</text><path d="M3159.16 1731.12 3104.09 1825.02 3022.7 1769.31 3070.38 1688.01 3159.16 1731.12Z" fill="#94B660" fill-rule="evenodd"/><g clip-path="url(#clip57)" filter="url(#fx16)" transform="translate(3018 1702)"><g clip-path="url(#clip58)"><path d="M34.2676 0 1.4502 0C1.82617-3.24056 2.96753-6.28865 4.87427-9.14429 6.78101-11.9999 10.3573-15.3703 15.603-19.2554 18.8078-21.6366 20.8577-23.4448 21.7529-24.6802 22.6481-25.9155 23.0957-27.0882 23.0957-28.1982 23.0957-29.3978 22.6526-30.4228 21.7664-31.2732 20.8801-32.1236 19.7656-32.5488 18.4228-32.5488 17.0264-32.5488 15.885-32.1102 14.9988-31.2329 14.1125-30.3556 13.5173-28.807 13.2129-26.5869L2.25586-27.4731C2.68555-30.5526 3.47331-32.9561 4.61914-34.6838 5.76497-36.4115 7.38078-37.7364 9.46655-38.6584 11.5523-39.5805 14.4393-40.0415 18.1274-40.0415 21.9767-40.0415 24.9711-39.6029 27.1106-38.7256 29.2501-37.8483 30.933-36.5011 32.1594-34.6838 33.3858-32.8666 33.999-30.8301 33.999-28.5742 33.999-26.1751 33.2963-23.8835 31.8909-21.6992 30.4854-19.515 27.9297-17.1159 24.2236-14.502 22.0215-12.9801 20.5489-11.9149 19.8059-11.3062 19.0629-10.6974 18.1901-9.90071 17.1875-8.91601L34.2676-8.91601ZM38.9225-19.8462C38.9225-27.3299 40.2698-32.5667 42.9643-35.5566 45.6588-38.5465 49.7632-40.0415 55.2775-40.0415 57.9272-40.0415 60.1025-39.7148 61.8034-39.0613 63.5042-38.4078 64.8918-37.5574 65.966-36.51 67.0402-35.4626 67.8861-34.3616 68.5038-33.2068 69.1215-32.052 69.6183-30.7048 69.9943-29.165 70.7283-26.2288 71.0954-23.1673 71.0954-19.9805 71.0954-12.8369 69.8869-7.60905 67.4699-4.29687 65.0529-0.9847 60.8903 0.671387 54.9821 0.671387 51.6699 0.671387 48.9933 0.143229 46.9523-0.913086 44.9113-1.9694 43.2373-3.51807 41.9303-5.55908 40.9814-7.00928 40.2429-8.99211 39.7148-11.5076 39.1866-14.023 38.9225-16.8026 38.9225-19.8462ZM49.7721-19.8193C49.7721-14.8063 50.2152-11.3822 51.1015-9.54712 51.9877-7.71199 53.2723-6.79443 54.9552-6.79443 56.0653-6.79443 57.0276-7.18384 57.8422-7.96265 58.6568-8.74145 59.2566-9.97233 59.6415-11.6553 60.0264-13.3382 60.2189-15.9611 60.2189-19.5239 60.2189-24.7518 59.7758-28.2654 58.8896-30.0647 58.0033-31.864 56.674-32.7637 54.9015-32.7637 53.0933-32.7637 51.7863-31.8461 50.9806-30.011 50.175-28.1759 49.7721-24.7786 49.7721-19.8193Z" fill="#FFFFFF" transform="matrix(1 0 0 1 39.3235 74)"/></g></g><text fill="#FFFFFF" font-family="Arial Black,Arial Black_MSFontService,sans-serif" font-weight="900" font-size="55" transform="matrix(1 0 0 1 3054.45 1774)">20</text><path d="M2782.99 2147.1 2688.41 2200.97 2644.8 2110.52 2726.69 2063.88 2782.99 2147.1Z" fill="#6AB16F" fill-rule="evenodd"/><g clip-path="url(#clip59)" filter="url(#fx17)" transform="translate(2640 2083)"><g clip-path="url(#clip60)"><path d="M34.2676 0 1.4502 0C1.82617-3.24056 2.96753-6.28865 4.87427-9.14429 6.78101-11.9999 10.3573-15.3703 15.603-19.2554 18.8078-21.6366 20.8577-23.4448 21.7529-24.6802 22.6481-25.9155 23.0957-27.0882 23.0957-28.1982 23.0957-29.3978 22.6526-30.4228 21.7664-31.2732 20.8801-32.1236 19.7656-32.5488 18.4228-32.5488 17.0264-32.5488 15.885-32.1102 14.9988-31.2329 14.1125-30.3556 13.5173-28.807 13.2129-26.5869L2.25586-27.4731C2.68555-30.5526 3.47331-32.9561 4.61914-34.6838 5.76497-36.4115 7.38078-37.7364 9.46655-38.6584 11.5523-39.5805 14.4393-40.0415 18.1274-40.0415 21.9767-40.0415 24.9711-39.6029 27.1106-38.7256 29.2501-37.8483 30.933-36.5011 32.1594-34.6838 33.3858-32.8666 33.999-30.8301 33.999-28.5742 33.999-26.1751 33.2963-23.8835 31.8909-21.6992 30.4854-19.515 27.9297-17.1159 24.2236-14.502 22.0215-12.9801 20.5489-11.9149 19.8059-11.3062 19.0629-10.6974 18.1901-9.90071 17.1875-8.91601L34.2676-8.91601ZM43.3537-39.3701 69.3229-39.3701 69.3229-30.6421 51.7326-30.6421 50.7926-24.7339C52.0101-25.3068 53.2141-25.7365 54.4047-26.0229 55.5953-26.3094 56.7725-26.4526 57.9362-26.4526 61.875-26.4526 65.0708-25.262 67.5236-22.8809 69.9764-20.4997 71.2028-17.5008 71.2028-13.8843 71.2028-11.342 70.5717-8.89811 69.3095-6.55273 68.0473-4.20736 66.2569-2.41699 63.9384-1.18164 61.6199 0.0537109 58.6523 0.671387 55.0358 0.671387 52.4398 0.671387 50.2152 0.425212 48.3622-0.0671387 46.5092-0.559489 44.9337-1.29354 43.6357-2.26929 42.3376-3.24504 41.2858-4.35059 40.4801-5.58594 39.6745-6.82129 39.0031-8.361 38.466-10.2051L49.5304-11.4136C49.799-9.64111 50.4256-8.29386 51.4103-7.37183 52.395-6.44979 53.5677-5.98877 54.9284-5.98877 56.4502-5.98877 57.7079-6.56616 58.7016-7.72095 59.6952-8.87573 60.1921-10.599 60.1921-12.8906 60.1921-15.236 59.6908-16.9548 58.6881-18.0469 57.6855-19.139 56.3517-19.6851 54.6867-19.6851 53.6304-19.6851 52.6099-19.4255 51.6252-18.9062 50.8911-18.5303 50.0854-17.8499 49.2082-16.8652L39.8893-18.208Z" fill="#FFFFFF" transform="matrix(1 0 0 1 38.9758 74)"/></g></g><text fill="#FFFFFF" font-family="Arial Black,Arial Black_MSFontService,sans-serif" font-weight="900" font-size="55" transform="matrix(1 0 0 1 2676.1 2154)">25</text><path d="M2254 2318 2146 2318 2152.82 2217 2246.33 2217 2254 2318Z" fill="#318C7B" fill-rule="evenodd"/><g clip-path="url(#clip61)" filter="url(#fx18)" transform="translate(2128 2221)"><g clip-path="url(#clip62)"><path d="M12.8638-27.9834 2.52441-29.8364C3.38379-33.1307 5.0354-35.6551 7.47925-37.4097 9.92309-39.1642 13.383-40.0415 17.8589-40.0415 22.9972-40.0415 26.7122-39.0837 29.0039-37.168 31.2956-35.2523 32.4414-32.8442 32.4414-29.9438 32.4414-28.243 31.9759-26.7033 31.0449-25.3247 30.1139-23.9461 28.7085-22.7376 26.8286-21.6992 28.3504-21.3232 29.5142-20.8846 30.3198-20.3833 31.6268-19.5776 32.6428-18.5168 33.3679-17.2009 34.093-15.885 34.4556-14.314 34.4556-12.4878 34.4556-10.1961 33.8558-7.99845 32.6562-5.89477 31.4567-3.7911 29.729-2.17082 27.4731-1.03394 25.2173 0.102946 22.2542 0.671387 18.584 0.671387 15.0033 0.671387 12.179 0.250651 10.1111-0.59082 8.04321-1.43229 6.34237-2.66317 5.00854-4.28345 3.67472-5.90373 2.64974-7.94027 1.93359-10.3931L12.8638-11.8433C13.2935-9.64111 13.9604-8.11483 14.8645-7.2644 15.7686-6.41398 16.9189-5.98877 18.3154-5.98877 19.7835-5.98877 21.0054-6.52588 21.9812-7.6001 22.9569-8.67432 23.4448-10.1066 23.4448-11.897 23.4448-13.7231 22.9749-15.1375 22.0349-16.1401 21.095-17.1427 19.8193-17.644 18.208-17.644 17.3486-17.644 16.167-17.4292 14.6631-16.9995L15.227-24.8145C15.8358-24.7249 16.3102-24.6802 16.6504-24.6802 18.0827-24.6802 19.2777-25.1367 20.2356-26.0498 21.1934-26.9629 21.6724-28.0461 21.6724-29.2993 21.6724-30.4989 21.3143-31.4567 20.5981-32.1728 19.882-32.889 18.8973-33.2471 17.644-33.2471 16.355-33.2471 15.3076-32.8577 14.502-32.0789 13.6963-31.3 13.1502-29.9349 12.8638-27.9834ZM38.9225-19.8462C38.9225-27.3299 40.2698-32.5667 42.9643-35.5566 45.6588-38.5465 49.7632-40.0415 55.2775-40.0415 57.9272-40.0415 60.1025-39.7148 61.8034-39.0613 63.5042-38.4078 64.8918-37.5574 65.966-36.51 67.0402-35.4626 67.8861-34.3616 68.5038-33.2068 69.1215-32.052 69.6183-30.7048 69.9943-29.165 70.7283-26.2288 71.0954-23.1673 71.0954-19.9805 71.0954-12.8369 69.8869-7.60905 67.4699-4.29687 65.0529-0.9847 60.8903 0.671387 54.9821 0.671387 51.6699 0.671387 48.9933 0.143229 46.9523-0.913086 44.9113-1.9694 43.2373-3.51807 41.9303-5.55908 40.9814-7.00928 40.2429-8.99211 39.7148-11.5076 39.1866-14.023 38.9225-16.8026 38.9225-19.8462ZM49.7721-19.8193C49.7721-14.8063 50.2152-11.3822 51.1015-9.54712 51.9877-7.71199 53.2723-6.79443 54.9552-6.79443 56.0653-6.79443 57.0276-7.18384 57.8422-7.96265 58.6568-8.74145 59.2566-9.97233 59.6415-11.6553 60.0264-13.3382 60.2189-15.9611 60.2189-19.5239 60.2189-24.7518 59.7758-28.2654 58.8896-30.0647 58.0033-31.864 56.674-32.7637 54.9015-32.7637 53.0933-32.7637 51.7863-31.8461 50.9806-30.011 50.175-28.1759 49.7721-24.7786 49.7721-19.8193Z" fill="#FFFFFF" transform="matrix(1 0 0 1 38.9741 74)"/></g></g><text fill="#FFFFFF" font-family="Arial Black,Arial Black_MSFontService,sans-serif" font-weight="900" font-size="55" transform="matrix(1 0 0 1 2164.1 2292)">30</text><path d="M1708.12 2201.48 1614.76 2145.51 1671.66 2063.96 1752.49 2112.42 1708.12 2201.48Z" fill="#104C93" fill-rule="evenodd"/><g clip-path="url(#clip63)" filter="url(#fx19)" transform="translate(1611 2077)"><g clip-path="url(#clip64)"><path d="M12.8638-27.9834 2.52441-29.8364C3.38379-33.1307 5.0354-35.6551 7.47925-37.4097 9.92309-39.1642 13.383-40.0415 17.8589-40.0415 22.9972-40.0415 26.7122-39.0837 29.0039-37.168 31.2956-35.2523 32.4414-32.8442 32.4414-29.9438 32.4414-28.243 31.9759-26.7033 31.0449-25.3247 30.1139-23.9461 28.7085-22.7376 26.8286-21.6992 28.3504-21.3232 29.5142-20.8846 30.3198-20.3833 31.6268-19.5776 32.6428-18.5168 33.3679-17.2009 34.093-15.885 34.4556-14.314 34.4556-12.4878 34.4556-10.1961 33.8558-7.99845 32.6562-5.89477 31.4567-3.7911 29.729-2.17082 27.4731-1.03394 25.2173 0.102946 22.2542 0.671387 18.584 0.671387 15.0033 0.671387 12.179 0.250651 10.1111-0.59082 8.04321-1.43229 6.34237-2.66317 5.00854-4.28345 3.67472-5.90373 2.64974-7.94027 1.93359-10.3931L12.8638-11.8433C13.2935-9.64111 13.9604-8.11483 14.8645-7.2644 15.7686-6.41398 16.9189-5.98877 18.3154-5.98877 19.7835-5.98877 21.0054-6.52588 21.9812-7.6001 22.9569-8.67432 23.4448-10.1066 23.4448-11.897 23.4448-13.7231 22.9749-15.1375 22.0349-16.1401 21.095-17.1427 19.8193-17.644 18.208-17.644 17.3486-17.644 16.167-17.4292 14.6631-16.9995L15.227-24.8145C15.8358-24.7249 16.3102-24.6802 16.6504-24.6802 18.0827-24.6802 19.2777-25.1367 20.2356-26.0498 21.1934-26.9629 21.6724-28.0461 21.6724-29.2993 21.6724-30.4989 21.3143-31.4567 20.5981-32.1728 19.882-32.889 18.8973-33.2471 17.644-33.2471 16.355-33.2471 15.3076-32.8577 14.502-32.0789 13.6963-31.3 13.1502-29.9349 12.8638-27.9834ZM43.3537-39.3701 69.3229-39.3701 69.3229-30.6421 51.7326-30.6421 50.7926-24.7339C52.0101-25.3068 53.2141-25.7365 54.4047-26.0229 55.5953-26.3094 56.7725-26.4526 57.9362-26.4526 61.875-26.4526 65.0708-25.262 67.5236-22.8809 69.9764-20.4997 71.2028-17.5008 71.2028-13.8843 71.2028-11.342 70.5717-8.89811 69.3095-6.55273 68.0473-4.20736 66.2569-2.41699 63.9384-1.18164 61.6199 0.0537109 58.6523 0.671387 55.0358 0.671387 52.4398 0.671387 50.2152 0.425212 48.3622-0.0671387 46.5092-0.559489 44.9337-1.29354 43.6357-2.26929 42.3376-3.24504 41.2858-4.35059 40.4801-5.58594 39.6745-6.82129 39.0031-8.361 38.466-10.2051L49.5304-11.4136C49.799-9.64111 50.4256-8.29386 51.4103-7.37183 52.395-6.44979 53.5677-5.98877 54.9284-5.98877 56.4502-5.98877 57.7079-6.56616 58.7016-7.72095 59.6952-8.87573 60.1921-10.599 60.1921-12.8906 60.1921-15.236 59.6908-16.9548 58.6881-18.0469 57.6855-19.139 56.3517-19.6851 54.6867-19.6851 53.6304-19.6851 52.6099-19.4255 51.6252-18.9062 50.8911-18.5303 50.0854-17.8499 49.2082-16.8652L39.8893-18.208Z" fill="#FFFFFF" transform="matrix(1 0 0 1 39.1449 75)"/></g></g><text fill="#FFFFFF" font-family="Arial Black,Arial Black_MSFontService,sans-serif" font-weight="900" font-size="55" transform="matrix(1 0 0 1 1647.27 2149)">35</text><path d="M1296.31 1823.76 1241.7 1729.6 1328.12 1687.43 1375.4 1768.96 1296.31 1823.76Z" fill="#2E6EB6" fill-rule="evenodd"/><g clip-path="url(#clip65)" filter="url(#fx20)" transform="translate(1233 1700)"><g clip-path="url(#clip66)"><path d="M21.0547-7.3584 1.12793-7.3584 1.12793-16.355 21.0547-40.0415 30.5884-40.0415 30.5884-15.8447 35.5298-15.8447 35.5298-7.3584 30.5884-7.3584 30.5884 0 21.0547 0ZM21.0547-15.8447 21.0547-28.2347 10.5257-15.8447ZM38.9225-19.8462C38.9225-27.3299 40.2698-32.5667 42.9643-35.5566 45.6588-38.5465 49.7632-40.0415 55.2775-40.0415 57.9272-40.0415 60.1025-39.7148 61.8034-39.0613 63.5042-38.4078 64.8918-37.5574 65.966-36.51 67.0402-35.4626 67.8861-34.3616 68.5038-33.2068 69.1215-32.052 69.6183-30.7048 69.9943-29.165 70.7283-26.2288 71.0954-23.1673 71.0954-19.9805 71.0954-12.8369 69.8869-7.60905 67.4699-4.29687 65.0529-0.9847 60.8903 0.671387 54.9821 0.671387 51.6699 0.671387 48.9933 0.143229 46.9523-0.913086 44.9113-1.9694 43.2373-3.51807 41.9303-5.55908 40.9814-7.00928 40.2429-8.99211 39.7148-11.5076 39.1866-14.023 38.9225-16.8026 38.9225-19.8462ZM49.7721-19.8193C49.7721-14.8063 50.2152-11.3822 51.1015-9.54712 51.9877-7.71199 53.2723-6.79443 54.9552-6.79443 56.0653-6.79443 57.0276-7.18384 57.8422-7.96265 58.6568-8.74145 59.2566-9.97233 59.6415-11.6553 60.0264-13.3382 60.2189-15.9611 60.2189-19.5239 60.2189-24.7518 59.7758-28.2654 58.8896-30.0647 58.0033-31.864 56.674-32.7637 54.9015-32.7637 53.0933-32.7637 51.7863-31.8461 50.9806-30.011 50.175-28.1759 49.7721-24.7786 49.7721-19.8193Z" fill="#FFFFFF" transform="matrix(1 0 0 1 38.7699 74)"/></g></g><text fill="#FFFFFF" font-family="Arial Black,Arial Black_MSFontService,sans-serif" font-weight="900" font-size="55" transform="matrix(1 0 0 1 1268.9 1772)">40</text><path d="M1125 1294 1125 1185 1221 1191.88 1221 1286.25 1125 1294Z" fill="#5F5297" fill-rule="evenodd"/><g clip-path="url(#clip67)" filter="url(#fx21)" transform="translate(1098 1188)"><g clip-path="url(#clip68)"><path d="M21.0547-7.3584 1.12793-7.3584 1.12793-16.355 21.0547-40.0415 30.5884-40.0415 30.5884-15.8447 35.5298-15.8447 35.5298-7.3584 30.5884-7.3584 30.5884 0 21.0547 0ZM21.0547-15.8447 21.0547-28.2347 10.5257-15.8447ZM43.3537-39.3701 69.3229-39.3701 69.3229-30.6421 51.7326-30.6421 50.7926-24.7339C52.0101-25.3068 53.2141-25.7365 54.4047-26.0229 55.5953-26.3094 56.7725-26.4526 57.9362-26.4526 61.875-26.4526 65.0708-25.262 67.5236-22.8809 69.9764-20.4997 71.2028-17.5008 71.2028-13.8843 71.2028-11.342 70.5717-8.89811 69.3095-6.55273 68.0473-4.20736 66.2569-2.41699 63.9384-1.18164 61.6199 0.0537109 58.6523 0.671387 55.0358 0.671387 52.4398 0.671387 50.2152 0.425212 48.3622-0.0671387 46.5092-0.559489 44.9337-1.29354 43.6357-2.26929 42.3376-3.24504 41.2858-4.35059 40.4801-5.58594 39.6745-6.82129 39.0031-8.361 38.466-10.2051L49.5304-11.4136C49.799-9.64111 50.4256-8.29386 51.4103-7.37183 52.395-6.44979 53.5677-5.98877 54.9284-5.98877 56.4502-5.98877 57.7079-6.56616 58.7016-7.72095 59.6952-8.87573 60.1921-10.599 60.1921-12.8906 60.1921-15.236 59.6908-16.9548 58.6881-18.0469 57.6855-19.139 56.3517-19.6851 54.6867-19.6851 53.6304-19.6851 52.6099-19.4255 51.6252-18.9062 50.8911-18.5303 50.0854-17.8499 49.2082-16.8652L39.8893-18.208Z" fill="#FFFFFF" transform="matrix(1 0 0 1 38.7153 74)"/></g></g><text fill="#FFFFFF" font-family="Arial Black,Arial Black_MSFontService,sans-serif" font-weight="900" font-size="55" transform="matrix(1 0 0 1 1133.84 1259)">45</text><path d="M1239.02 749.635 1297.5 657.827 1374.69 715.152 1324.06 794.639 1239.02 749.635Z" fill="#953575" fill-rule="evenodd"/><g clip-path="url(#clip69)" filter="url(#fx22)" transform="translate(1236 680)"><g clip-path="url(#clip70)"><path d="M6.68701-39.3701 32.6562-39.3701 32.6562-30.6421 15.0659-30.6421 14.126-24.7339C15.3434-25.3068 16.5474-25.7365 17.738-26.0229 18.9286-26.3094 20.1058-26.4526 21.2695-26.4526 25.2083-26.4526 28.4041-25.262 30.8569-22.8809 33.3097-20.4997 34.5361-17.5008 34.5361-13.8843 34.5361-11.342 33.905-8.89811 32.6428-6.55273 31.3806-4.20736 29.5902-2.41699 27.2717-1.18164 24.9532 0.0537109 21.9857 0.671387 18.3691 0.671387 15.7731 0.671387 13.5486 0.425212 11.6956-0.0671387 9.84253-0.559489 8.26701-1.29354 6.96899-2.26929 5.67098-3.24504 4.61914-4.35059 3.81348-5.58594 3.00781-6.82129 2.33643-8.361 1.79932-10.2051L12.8638-11.4136C13.1323-9.64111 13.759-8.29386 14.7437-7.37183 15.7284-6.44979 16.901-5.98877 18.2617-5.98877 19.7835-5.98877 21.0413-6.56616 22.0349-7.72095 23.0286-8.87573 23.5254-10.599 23.5254-12.8906 23.5254-15.236 23.0241-16.9548 22.0215-18.0469 21.0189-19.139 19.6851-19.6851 18.02-19.6851 16.9637-19.6851 15.9432-19.4255 14.9585-18.9062 14.2244-18.5303 13.4188-17.8499 12.5415-16.8652L3.22266-18.208ZM38.9225-19.8462C38.9225-27.3299 40.2698-32.5667 42.9643-35.5566 45.6588-38.5465 49.7632-40.0415 55.2775-40.0415 57.9272-40.0415 60.1025-39.7148 61.8034-39.0613 63.5042-38.4078 64.8918-37.5574 65.966-36.51 67.0402-35.4626 67.8861-34.3616 68.5038-33.2068 69.1215-32.052 69.6183-30.7048 69.9943-29.165 70.7283-26.2288 71.0954-23.1673 71.0954-19.9805 71.0954-12.8369 69.8869-7.60905 67.4699-4.29687 65.0529-0.9847 60.8903 0.671387 54.9821 0.671387 51.6699 0.671387 48.9933 0.143229 46.9523-0.913086 44.9113-1.9694 43.2373-3.51807 41.9303-5.55908 40.9814-7.00928 40.2429-8.99211 39.7148-11.5076 39.1866-14.023 38.9225-16.8026 38.9225-19.8462ZM49.7721-19.8193C49.7721-14.8063 50.2152-11.3822 51.1015-9.54712 51.9877-7.71199 53.2723-6.79443 54.9552-6.79443 56.0653-6.79443 57.0276-7.18384 57.8422-7.96265 58.6568-8.74145 59.2566-9.97233 59.6415-11.6553 60.0264-13.3382 60.2189-15.9611 60.2189-19.5239 60.2189-24.7518 59.7758-28.2654 58.8896-30.0647 58.0033-31.864 56.674-32.7637 54.9015-32.7637 53.0933-32.7637 51.7863-31.8461 50.9806-30.011 50.175-28.1759 49.7721-24.7786 49.7721-19.8193Z" fill="#FFFFFF" transform="matrix(1 0 0 1 39.4358 74)"/></g></g><text fill="#FFFFFF" font-family="Arial Black,Arial Black_MSFontService,sans-serif" font-weight="900" font-size="55" transform="matrix(1 0 0 1 1272.56 751)">50</text><path d="M1617.63 341.985 1711.64 287.102 1754.05 373.393 1672.67 420.909 1617.63 341.985Z" fill="#C23249" fill-rule="evenodd"/><g clip-path="url(#clip71)" filter="url(#fx23)" transform="translate(1614 301)"><g clip-path="url(#clip72)"><path d="M6.68701-39.3701 32.6562-39.3701 32.6562-30.6421 15.0659-30.6421 14.126-24.7339C15.3434-25.3068 16.5474-25.7365 17.738-26.0229 18.9286-26.3094 20.1058-26.4526 21.2695-26.4526 25.2083-26.4526 28.4041-25.262 30.8569-22.8809 33.3097-20.4997 34.5361-17.5008 34.5361-13.8843 34.5361-11.342 33.905-8.89811 32.6428-6.55273 31.3806-4.20736 29.5902-2.41699 27.2717-1.18164 24.9532 0.0537109 21.9857 0.671387 18.3691 0.671387 15.7731 0.671387 13.5486 0.425212 11.6956-0.0671387 9.84253-0.559489 8.26701-1.29354 6.96899-2.26929 5.67098-3.24504 4.61914-4.35059 3.81348-5.58594 3.00781-6.82129 2.33643-8.361 1.79932-10.2051L12.8638-11.4136C13.1323-9.64111 13.759-8.29386 14.7437-7.37183 15.7284-6.44979 16.901-5.98877 18.2617-5.98877 19.7835-5.98877 21.0413-6.56616 22.0349-7.72095 23.0286-8.87573 23.5254-10.599 23.5254-12.8906 23.5254-15.236 23.0241-16.9548 22.0215-18.0469 21.0189-19.139 19.6851-19.6851 18.02-19.6851 16.9637-19.6851 15.9432-19.4255 14.9585-18.9062 14.2244-18.5303 13.4188-17.8499 12.5415-16.8652L3.22266-18.208ZM43.3537-39.3701 69.3229-39.3701 69.3229-30.6421 51.7326-30.6421 50.7926-24.7339C52.0101-25.3068 53.2141-25.7365 54.4047-26.0229 55.5953-26.3094 56.7725-26.4526 57.9362-26.4526 61.875-26.4526 65.0708-25.262 67.5236-22.8809 69.9764-20.4997 71.2028-17.5008 71.2028-13.8843 71.2028-11.342 70.5717-8.89811 69.3095-6.55273 68.0473-4.20736 66.2569-2.41699 63.9384-1.18164 61.6199 0.0537109 58.6523 0.671387 55.0358 0.671387 52.4398 0.671387 50.2152 0.425212 48.3622-0.0671387 46.5092-0.559489 44.9337-1.29354 43.6357-2.26929 42.3376-3.24504 41.2858-4.35059 40.4801-5.58594 39.6745-6.82129 39.0031-8.361 38.466-10.2051L49.5304-11.4136C49.799-9.64111 50.4256-8.29386 51.4103-7.37183 52.395-6.44979 53.5677-5.98877 54.9284-5.98877 56.4502-5.98877 57.7079-6.56616 58.7016-7.72095 59.6952-8.87573 60.1921-10.599 60.1921-12.8906 60.1921-15.236 59.6908-16.9548 58.6881-18.0469 57.6855-19.139 56.3517-19.6851 54.6867-19.6851 53.6304-19.6851 52.6099-19.4255 51.6252-18.9062 50.8911-18.5303 50.0854-17.8499 49.2082-16.8652L39.8893-18.208Z" fill="#FFFFFF" transform="matrix(1 0 0 1 38.9379 75)"/></g></g><text fill="#FFFFFF" font-family="Arial Black,Arial Black_MSFontService,sans-serif" font-weight="900" font-size="55" transform="matrix(1 0 0 1 1650.07 373)">55<tspan fill="#D9D9D9" font-size="55" x="637.934" y="-130">1</tspan><tspan fill="#D9D9D9" font-size="55" x="741.546" y="-112">2</tspan><tspan fill="#D9D9D9" font-size="55" x="844.853" y="-82">3</tspan><tspan fill="#D9D9D9" font-size="55" x="948.16" y="-50">4</tspan><tspan fill="#D9D9D9" font-size="55" x="1136.42" y="65">6</tspan><tspan fill="#D9D9D9" font-size="55" x="1216.43" y="131">7</tspan><tspan fill="#D9D9D9" font-size="55" x="1290.33" y="201">8</tspan><tspan fill="#D9D9D9" font-size="55" x="1356.28" y="287">9</tspan><tspan fill="#D9D9D9" font-size="55" x="1449.17" y="470">11</tspan><tspan fill="#D9D9D9" font-size="55" x="1487.61" y="573">12</tspan><tspan fill="#D9D9D9" font-size="55" x="1513.4" y="678">13</tspan><tspan fill="#D9D9D9" font-size="55" x="1529.44" y="786">14</tspan><tspan fill="#D9D9D9" font-size="55" x="1529.44" y="997">16</tspan><tspan fill="#D9D9D9" font-size="55" x="1513.09" y="1103">17</tspan><tspan fill="#D9D9D9" font-size="55" x="1486.41" y="1206">18</tspan><tspan fill="#D9D9D9" font-size="55" x="1447.55" y="1309">19</tspan><tspan fill="#D9D9D9" font-size="55" x="1347.77" y="1493">21</tspan><tspan fill="#D9D9D9" font-size="55" x="1283.52" y="1575">22</tspan><tspan fill="#D9D9D9" font-size="55" x="1201.54" y="1650">23</tspan><tspan fill="#D9D9D9" font-size="55" x="1118.08" y="1723">24</tspan><tspan fill="#D9D9D9" font-size="55" x="935.374" y="1829">26</tspan><tspan fill="#D9D9D9" font-size="55" x="832.067" y="1874">27</tspan><tspan fill="#D9D9D9" font-size="55" x="721.849" y="1895">28</tspan><tspan fill="#D9D9D9" font-size="55" x="615.388" y="1914">29</tspan><tspan fill="#D9D9D9" font-size="55" x="404.752" y="1914">31</tspan><tspan fill="#D9D9D9" font-size="55" x="295.468" y="1895">32</tspan><tspan fill="#D9D9D9" font-size="55" x="191.142" y="1873">33</tspan><tspan fill="#D9D9D9" font-size="55" x="99.8618" y="1835">34</tspan><tspan fill="#D9D9D9" font-size="55" x="-99.8521" y="1719">36</tspan><tspan fill="#D9D9D9" font-size="55" x="-179.236" y="1653">37</tspan><tspan fill="#D9D9D9" font-size="55" x="-253.917" y="1575">38</tspan><tspan fill="#D9D9D9" font-size="55" x="-324.252" y="1491">39</tspan><tspan fill="#D9D9D9" font-size="55" x="-428.853" y="1301">41</tspan><tspan fill="#D9D9D9" font-size="55" x="-465.382" y="1203">42</tspan><tspan fill="#D9D9D9" font-size="55" x="-491.856" y="1095">43</tspan><tspan fill="#D9D9D9" font-size="55" x="-512.483" y="993">44</tspan><tspan fill="#D9D9D9" font-size="55" x="-506.86" y="777">46</tspan><tspan fill="#D9D9D9" font-size="55" x="-489.014" y="675">47</tspan><tspan fill="#D9D9D9" font-size="55" x="-467.392" y="575">48</tspan><tspan fill="#D9D9D9" font-size="55" x="-424.124" y="471">49</tspan><tspan fill="#D9D9D9" font-size="55" x="-315.269" y="283">51</tspan><tspan fill="#D9D9D9" font-size="55" x="-251.246" y="198">52</tspan><tspan fill="#D9D9D9" font-size="55" x="-174.081" y="123">53</tspan><tspan fill="#D9D9D9" font-size="55" x="-84.2142" y="61">54</tspan><tspan fill="#D9D9D9" font-size="55" x="96.7077" y="-43">56</tspan><tspan fill="#D9D9D9" font-size="55" x="197.227" y="-83">57</tspan><tspan fill="#D9D9D9" font-size="55" x="303.307" y="-112">58</tspan><tspan fill="#D9D9D9" font-size="55" x="406.615" y="-132">59</tspan></text><path d="M1782 1231C1782 1007.32 1963.32 826 2187 826L2187 1231 1782 1231Z" fill="url(#fill73)" fill-rule="evenodd"/><path d="M2206 826C2429.68 826 2611 1007.32 2611 1231L2206 1231 2206 826Z" fill="url(#fill74)" fill-rule="evenodd"/><path d="M2611 1250C2611 1473.68 2429.68 1655 2206 1655L2206 1250 2611 1250Z" fill="url(#fill75)" fill-rule="evenodd"/><path d="M2187 1655C1963.32 1655 1782 1473.68 1782 1250L2187 1250 2187 1655Z" fill="url(#fill76)" fill-rule="evenodd"/><path d="M1899 1242.5C1899 1078.2 2032.2 945 2196.5 945 2360.8 945 2494 1078.2 2494 1242.5 2494 1406.8 2360.8 1540 2196.5 1540 2032.2 1540 1899 1406.8 1899 1242.5Z" fill-rule="evenodd"/><path d="M1122.5 1246.5C1122.5 651.137 1605.14 168.5 2200.5 168.5 2795.86 168.5 3278.5 651.137 3278.5 1246.5 3278.5 1841.86 2795.86 2324.5 2200.5 2324.5 1605.14 2324.5 1122.5 1841.86 1122.5 1246.5Z" stroke="#FFFFFF" stroke-width="14.8958" stroke-miterlimit="8" fill="none" fill-rule="evenodd"/><path d="M1227 1240.5C1227 702.851 1662.85 267 2200.5 267 2738.15 267 3174 702.851 3174 1240.5 3174 1778.15 2738.15 2214 2200.5 2214 1662.85 2214 1227 1778.15 1227 1240.5Z" stroke="#FFFFFF" stroke-width="13.75" stroke-miterlimit="8" fill="none" fill-rule="evenodd"/></g></svg>